<?xml version="1.0" encoding="UTF-8"?><svg viewBox="0 0 475 228" xmlns="http://www.w3.org/2000/svg"><g fill="#fceccb" fill-rule="evenodd"><path d="m167.94 12.96c0 7.04 6.912 12.8 15.36 12.8h154.11c8.448 0 15.36-5.76 15.36-12.8s-6.912-12.8-15.36-12.8h-154.11c-8.448 0-15.36 5.76-15.36 12.8m258.05 48.64c0 7.04 6.912 12.801 15.36 12.801h17.409c8.447 0 15.359-5.761 15.359-12.801 0-7.039-6.912-12.8-15.359-12.8h-17.409c-8.448 0-15.36 5.761-15.36 12.8m-302.59-48.64c0 7.04 5.76 12.8 12.8 12.8s12.8-5.76 12.8-12.8-5.76-12.8-12.8-12.8-12.8 5.76-12.8 12.8m-80.384 99.84c0 7.04 6.912 12.8 15.359 12.8h17.409c8.448 0 15.36-5.76 15.36-12.8s-6.912-12.8-15.36-12.8h-17.409c-8.447 0-15.359 5.76-15.359 12.8"/><path d="m15.36 202.4h122.88c8.448 0 15.36-5.761 15.36-12.801 0-7.039-6.912-12.8-15.36-12.8h-6.655c-8.449 0-15.361-5.759-15.361-12.799s6.912-12.8 15.361-12.8h83.456c8.447 0 15.359-5.76 15.359-12.8s-6.912-12.801-15.359-12.801h-100.35c-8.448 0-15.359-5.76-15.359-12.8s6.911-12.799 15.359-12.799h130.05c8.448 0 15.36-5.76 15.36-12.8s-6.912-12.8-15.36-12.8h-107.52c-8.448 0-15.36-5.761-15.36-12.801 0-7.039 6.912-12.8 15.36-12.8h261.12c8.447 0 15.359 5.761 15.359 12.8 0 7.04-6.912 12.801-15.359 12.801h-97.792c-8.449 0-15.361 5.76-15.361 12.8s6.912 12.8 15.361 12.8h36.863c8.448 0 15.36 5.759 15.36 12.799s-6.912 12.8-15.36 12.8h0.513c-8.449 0-15.361 5.761-15.361 12.801s6.912 12.8 15.361 12.8h116.22c8.448 0 15.361 5.76 15.361 12.8s-6.913 12.799-15.361 12.799h-201.22c-8.448 0-15.36 5.761-15.36 12.8 0 7.04 6.912 12.801 15.36 12.801h23.552c8.448 0 15.36 5.76 15.36 12.8s-6.912 12.8-15.36 12.8h-261.12c-8.447 0-15.359-5.76-15.359-12.8s6.912-12.8 15.359-12.8"/></g></svg>