<?xml version="1.0" encoding="UTF-8"?><svg viewBox="0 0 380 184" xmlns="http://www.w3.org/2000/svg"><g fill="#fceccb" fill-rule="evenodd"><path d="m134.76 172.98c0-5.633 5.529-10.24 12.288-10.24h123.29c6.759 0 12.288 4.607 12.288 10.24 0 5.632-5.529 10.239-12.288 10.239h-123.29c-6.759 0-12.288-4.607-12.288-10.239m206.44-38.912c0-5.633 5.529-10.24 12.288-10.24h13.926c6.759 0 12.288 4.607 12.288 10.24 0 5.632-5.529 10.239-12.288 10.239h-13.926c-6.759 0-12.288-4.607-12.288-10.239m-242.07 38.912c0-5.633 4.608-10.24 10.24-10.24s10.24 4.607 10.24 10.24c0 5.632-4.608 10.239-10.24 10.239s-10.24-4.607-10.24-10.239m-64.307-79.872c0-5.633 5.529-10.24 12.288-10.24h13.926c6.759 0 12.288 4.607 12.288 10.24 0 5.632-5.529 10.239-12.288 10.239h-13.926c-6.759 0-12.288-4.607-12.288-10.239"/><path d="m12.7 21.424h98.304c6.759 0 12.288 4.608 12.288 10.24s-5.529 10.24-12.288 10.24h-5.325c-6.758 0-12.289 4.608-12.289 10.241 0 5.632 5.531 10.239 12.289 10.239h66.764c6.759 0 12.288 4.608 12.288 10.24s-5.529 10.24-12.288 10.24h-80.281c-6.758 0-12.288 4.608-12.288 10.241 0 5.632 5.53 10.239 12.288 10.239h104.04c6.759 0 12.288 4.608 12.288 10.24s-5.529 10.24-12.288 10.24h-86.016c-6.758 0-12.288 4.608-12.288 10.241 0 5.631 5.53 10.239 12.288 10.239h208.9c6.758 0 12.287-4.608 12.287-10.239 0-5.633-5.529-10.241-12.287-10.241h-78.234c-6.758 0-12.289-4.608-12.289-10.24s5.531-10.24 12.289-10.24h29.491c6.759 0 12.288-4.607 12.288-10.239 0-5.633-5.529-10.241-12.288-10.241h0.41c-6.759 0-12.288-4.608-12.288-10.24s5.529-10.24 12.288-10.24h92.978c6.759 0 12.288-4.607 12.288-10.239 0-5.633-5.529-10.241-12.288-10.241h-160.97c-6.758 0-12.288-4.608-12.288-10.24s5.53-10.24 12.288-10.24h18.842c6.758 0 12.288-4.607 12.288-10.24 0-5.632-5.53-10.239-12.288-10.239h-208.9c-6.759 0-12.288 4.607-12.288 10.239 0 5.633 5.529 10.24 12.288 10.24"/></g></svg>