<?xml version="1.0" encoding="UTF-8"?><svg enable-background="new 0 0 368.93 302.33" version="1.1" viewBox="0 0 368.93 302.33" xml:space="preserve" xmlns="http://www.w3.org/2000/svg"><style type="text/css">.st0{fill:#8f3d4b;}</style><path class="st0" d="m0.19 243.9s64.94-43.84 332.83 35.1l-0.08 23.33-332.94-0.68 0.19-57.75z"/><path class="st0" d="m109.92 69.11s-4.54-10.35-13.38-11.75l8.64 15.11-6.9 3.84s2.65 3.93 5.51 4.26l3.79-6.01 15.16 6.22s-1.67-5.52-9.87-8.75l1.54-3.94s-3.62-1-4.49 1.02z"/><path class="st0" d="m292.98 146s2.79-1.47 5.54-1.22c2.74 0.25 8.91 3.28 15.53 2.74 6.61-0.54-2.69 0.93-2.69 1.27s0.93-0.2 0.93 0.25c0 0.44-2.16 0.69-1.81 1.08s2.16 0.29 2.25 0.83c0.1 0.54-2.69 0.24-5.14-0.98s1.32 2.6 0.78 6.03c0 0-1.86-1.81-2.3-1.81s0.25 1.03-0.44 1.32-1.08-3.72-1.76-3.28c-0.69 0.44-1.03 3.87-1.67 3.97s-0.69-0.93-0.98-1.03 0.49 3.48 0.1 3.58-1.37-2.2-1.81-2.01c-0.44 0.2 1.28 3.6 0.83 3.87-0.73 0.44-5.83-5.63-4.51-12.2-0.01-0.01-2.81-0.6-2.85-2.41z"/><path class="st0" d="m134.15 41.31s9.58 1.31 11.64 3.38c2.07 2.07 11.08 16.34 26.85 15.77 0 0 9.39 5.45 16.9 3.94l-3-3.19s3.94 1.5 6.2 0.75-4.51-1.31-4.69-3 12.39 2.63 13.14-0.56-21.22-3.19-21.41-7.51 15.77-6.57 15.02-11.08h-2.82s3.94-4.32 3.19-5.26-5.63 1.88-5.63 1.88l2.44-4.51s-15.21 0.19-19.53 7.51-2.42-0.19-4.78-7.51-3.67-9.58-2.36-10.89-4.13 0.94-3 4.88-3.19-12.96-5.45-12.96-0.38 2.07-1.88 3.57 0.56-9.2-3-8.64c-3.57 0.56-4.88 16.52-2.63 24.6 2.25 8.07 4.51 10.33-1.5 4.88-6-5.44-13.7 3.95-13.7 3.95z"/><path class="st0" d="m45.74 138.14s5.69-3.41 7.67-3.13c1.99 0.28-1.28 4.55-1.28 4.55s11.94 0.84 16.2-2.28-0.85 5.27-5.69 4.7c-4.83-0.57 2.56 2.42 5.4 1.71s-0.14 3.27-8.81 1.14-0.28 2.7 2.7 2.42-2.84 3.29-15.21 0.01c0 0-6.11-1.15-6.96 4.25 0 0-5.69 1.71-8.81-1.71 0 0 7.39-3.41 5.69-4.69s-5.26 1.14-7.68-2.27l3.13-0.14s-3.84-1.71-3.13-3.55c0.71-1.85-2.27-0.42-3.13-1.63-0.85-1.21 0.99-1.35 0.99-1.35s-4.26 0.28-5.26-2.7c-0.99-2.98 4.12 1.42 5.54 0s-7.22-2.27-5.67-4.26c0.96-1.23 7.6-0.67 13.63 2.98 3.94 2.35 7.92 5.88 10.68 5.95z"/><path class="st0" d="m287.46 47.1s-25.11 4.48-37.67 30.49-10.31 34.98-10.31 34.98-17.49-11.21-12.11-29.15 14.8-18.83 14.8-18.83-7.13 2.3-13.45 7.17c-5.83 4.49 15.24-39.01 58.74-24.66z"/><path class="st0" d="m287.46 47.1s-18.38-11.88-50.89 0-32.29 35.42-32.29 35.42-8.74-25.78 6.95-39.69 28.25-10.31 28.25-10.31-5.16-2.62-12.11-0.42c-6.95 2.21 14.79-11.56 34.3-5.19 22.65 7.41 25.79 20.19 25.79 20.19z"/><path class="st0" d="m287.46 47.1s-12.56-33.63-58.52-34.98c0 0 6.73-14.57 24.89-11.21 4.8 0.89 8.98 3.01 12.53 5.65 0 0-1.09-4.19-4.23-6.15s29.59 1.62 25.33 46.69z"/><path class="st0" d="m287.46 47.1s-3.59-38.56 22.42-45.51l-3.36 6.05s24.44-16.14 39.01 4.71c0-0.01-35.2 2.01-58.07 34.75z"/><path class="st0" d="m287.46 47.1s24.96-29.75 58.07-18.98l-9.04 3.88s38.26 1.49 31.69 37.07c0 0-19.73-19.97-42.15-23.62-23.92-3.88-38.57 1.65-38.57 1.65z"/><path class="st0" d="m287.46 47.1s41.25-10.01 56.2 21.97l-6.58-1.79s15.7 13.75 8.45 33.18c-2.59 6.94-5.9 11.56-9.08 14.62 0 0-5.35-51.69-48.99-67.98z"/><path class="st0" d="m288.99 47.1h-3.33s10.12 34.22-17.98 93.41-44.84 75.93-44.84 126.16h40.06s-11.96-52.02 17.34-124.96 8.75-94.61 8.75-94.61z"/><path class="st0" d="m169.67 117.22s18.5 3.3 27.75 22.46 7.6 25.77 7.6 25.77 12.88-8.26 8.92-21.47-10.9-13.88-10.9-13.88 5.25 1.69 9.91 5.29c4.29 3.31-11.24-28.74-43.28-18.17z"/><path class="st0" d="m169.67 117.22s13.54-8.75 37.5 0 23.79 26.1 23.79 26.1 6.44-19-5.12-29.24-20.81-7.6-20.81-7.6 3.8-1.93 8.92-0.31c5.12 1.63-10.9-8.52-25.27-3.82-16.7 5.45-19.01 14.87-19.01 14.87z"/><path class="st0" d="m169.67 117.22s9.25-24.78 43.11-25.77c0 0-4.96-10.74-18.33-8.26-3.54 0.66-6.62 2.22-9.23 4.16 0 0 0.8-3.08 3.12-4.53s-21.81 1.2-18.67 34.4z"/><path class="st0" d="m169.67 117.22s2.64-28.41-16.52-33.53l2.48 4.46s-18-11.89-28.74 3.47c0 0 25.93 1.48 42.78 25.6z"/><path class="st0" d="m169.67 117.22s-18.39-21.91-42.78-13.99l6.66 2.86s-28.19 1.1-23.35 27.31c0 0 14.53-14.71 31.05-17.4 17.63-2.86 28.42 1.22 28.42 1.22z"/><path class="st0" d="m169.67 117.22s-30.39-7.38-41.4 16.19l4.85-1.32s-11.56 10.13-6.22 24.45c1.91 5.12 4.35 8.52 6.69 10.77-0.01 0 3.92-38.09 36.08-50.09z"/><path class="st0" d="m168.54 117.22h2.46s-7.46 25.21 13.25 68.82c20.7 43.61 33.04 55.94 33.04 92.94h-29.51s8.81-38.32-12.77-92.06c-21.6-53.74-6.47-69.7-6.47-69.7z"/></svg>