<?xml version="1.0" encoding="UTF-8"?><svg viewBox="0 0 482 231" xmlns="http://www.w3.org/2000/svg"><g fill="#072142" fill-rule="evenodd"><path d="m60.076 51.2c-7.039 0-12.8 5.76-12.8 12.8s5.761 12.8 12.8 12.8c7.04 0 12.801-5.76 12.801-12.8s-5.761-12.8-12.801-12.8"/><path d="m414 204.8h-121.54c-8.448 0-15.36-5.76-15.36-12.8s6.912-12.8 15.36-12.8h2.499c8.447 0 15.359-5.759 15.359-12.799s-6.912-12.8-15.359-12.8h-60.099c-8.448 0-15.36-5.761-15.36-12.801s6.912-12.8 15.36-12.8h110.66c8.448 0 15.36-5.76 15.36-12.8s-6.912-12.799-15.36-12.799h-124.48c-8.448 0-15.36-5.76-15.36-12.8s6.912-12.801 15.36-12.801h62.402c8.449 0 15.361-5.76 15.361-12.8s-6.912-12.8-15.361-12.8h0.702c-8.448 0-15.36-5.759-15.36-12.799s6.912-12.8 15.36-12.8h81.218c8.449 0 15.361-5.761 15.361-12.801s-6.912-12.8-15.361-12.8h-183.68c-8.449 0-15.361 5.76-15.361 12.8s6.912 12.801 15.361 12.801h46.653c8.448 0 15.36 5.76 15.36 12.8s-6.912 12.799-15.36 12.799h-122.17c-8.447 0-15.359 5.76-15.359 12.8s6.912 12.8 15.359 12.8h0.19c8.448 0 15.36 5.761 15.36 12.801s-6.912 12.8-15.36 12.8h-90.469c-8.448 0-15.36 5.759-15.36 12.799s6.912 12.8 15.36 12.8h163.17c8.448 0 15.36 5.76 15.36 12.8s-6.912 12.801-15.36 12.801h-3.774c-8.447 0-15.359 5.76-15.359 12.8s6.912 12.799 15.359 12.799h61.374c8.448 0 15.36 5.76 15.36 12.8s-6.912 12.8-15.36 12.8h-120.73c-8.448 0-15.36 5.761-15.36 12.801s6.912 12.8 15.36 12.8h298.08c8.447 0 15.359-5.76 15.359-12.8s-6.912-12.801-15.359-12.801m52.48 0h-12.16c-8.448 0-15.36 5.761-15.36 12.801s6.912 12.8 15.36 12.8h12.16c8.448 0 15.36-5.76 15.36-12.8s-6.912-12.801-15.36-12.801"/><path d="m323.12 166.4c0 7.04 6.912 12.8 15.36 12.8h53.12c8.449 0 15.361-5.76 15.361-12.8s-6.912-12.8-15.361-12.8h-53.12c-8.448 0-15.36 5.76-15.36 12.8"/></g></svg>