<?xml version="1.0" encoding="UTF-8"?><svg viewBox="0 0 475 229" xmlns="http://www.w3.org/2000/svg"><g fill="#072142" fill-rule="evenodd"><path d="m306.18 13.58c0 7.04-6.912 12.8-15.36 12.8h-154.11c-8.448 0-15.36-5.76-15.36-12.8s6.912-12.8 15.36-12.8h154.11c8.448 0 15.36 5.76 15.36 12.8m-258.05 48.64c0 7.04-6.912 12.801-15.36 12.801h-17.409c-8.447 0-15.359-5.761-15.359-12.801 0-7.039 6.912-12.8 15.359-12.8h17.409c8.448 0 15.36 5.761 15.36 12.8m302.59-48.64c0 7.04-5.76 12.8-12.8 12.8s-12.8-5.76-12.8-12.8 5.76-12.8 12.8-12.8 12.8 5.76 12.8 12.8m80.384 99.84c0 7.04-6.912 12.8-15.359 12.8h-17.409c-8.448 0-15.36-5.76-15.36-12.8s6.912-12.8 15.36-12.8h17.409c8.447 0 15.359 5.76 15.359 12.8"/><path d="m458.75 203.02h-122.88c-8.448 0-15.36-5.761-15.36-12.801 0-7.039 6.912-12.8 15.36-12.8h6.655c8.449 0 15.361-5.759 15.361-12.799s-6.912-12.8-15.361-12.8h-83.456c-8.447 0-15.359-5.76-15.359-12.8s6.912-12.801 15.359-12.801h100.35c8.448 0 15.359-5.76 15.359-12.8s-6.911-12.799-15.359-12.799h-130.05c-8.448 0-15.36-5.76-15.36-12.8s6.912-12.8 15.36-12.8h107.52c8.448 0 15.36-5.761 15.36-12.801 0-7.039-6.912-12.8-15.36-12.8h-261.12c-8.447 0-15.359 5.761-15.359 12.8 0 7.04 6.912 12.801 15.359 12.801h97.792c8.449 0 15.361 5.76 15.361 12.8s-6.912 12.8-15.361 12.8h-36.863c-8.448 0-15.36 5.759-15.36 12.799s6.912 12.8 15.36 12.8h-0.513c8.449 0 15.361 5.761 15.361 12.801s-6.912 12.8-15.361 12.8h-116.22c-8.448 0-15.361 5.76-15.361 12.8s6.913 12.799 15.361 12.799h201.22c8.448 0 15.36 5.761 15.36 12.8 0 7.04-6.912 12.801-15.36 12.801h-23.552c-8.448 0-15.36 5.76-15.36 12.8s6.912 12.8 15.36 12.8h261.12c8.447 0 15.359-5.76 15.359-12.8s-6.912-12.8-15.359-12.8"/></g></svg>