<?xml version="1.0" encoding="UTF-8"?><svg enable-background="new 0 0 29.26 29.26" version="1.1" viewBox="0 0 29.26 29.26" xml:space="preserve" xmlns="http://www.w3.org/2000/svg"><g fill="#ff4d5a"><path d="m14.627 15.954c-5.494 0-10.098-1.614-11.355-3.79-0.221 0.383-0.35 0.781-0.35 1.194v3.561c0 2.751 5.242 4.983 11.705 4.983 6.467 0 11.711-2.232 11.711-4.983v-3.561c0-0.413-0.131-0.811-0.354-1.194-1.257 2.175-5.857 3.79-11.357 3.79z"/><path d="m14.627 23.31c-5.494 0-10.098-1.616-11.355-3.788-0.221 0.381-0.35 0.779-0.35 1.191v3.564c0 2.752 5.242 4.983 11.705 4.983 6.467 0 11.711-2.23 11.711-4.983v-3.564c0-0.412-0.131-0.81-0.354-1.19-1.257 2.171-5.857 3.787-11.357 3.787z"/><path d="m26.018 5.042c-0.23 2.016-5.232 3.629-11.391 3.629-6.156 0-11.158-1.613-11.387-3.628-0.201 0.366-0.318 0.748-0.318 1.141v3.561c0 2.752 5.242 4.983 11.705 4.983 6.467 0 11.711-2.23 11.711-4.983v-3.561c0-0.393-0.119-0.775-0.32-1.142z"/><path d="m14.627 7.541c6.303 0 11.41-1.687 11.41-3.771 0-2.082-5.107-3.77-11.41-3.77-6.299 1e-3 -11.408 1.689-11.408 3.771 0 2.083 5.109 3.77 11.408 3.77z"/></g></svg>