<?xml version="1.0" encoding="UTF-8"?><svg enable-background="new 0 0 512 512" version="1.1" viewBox="0 0 512 512" xml:space="preserve" xmlns="http://www.w3.org/2000/svg"><g fill="#ff4d5a"><path d="m128 273.07h51.2c4.71 0 8.533-3.823 8.533-8.533s-3.823-8.533-8.533-8.533h-42.667v-17.067h8.533c4.71 0 8.533-3.823 8.533-8.533s-3.823-8.533-8.533-8.533h-8.533v-17.068h8.533c4.71 0 8.533-3.823 8.533-8.533s-3.823-8.533-8.533-8.533h-8.533v-17.067h42.667c4.71 0 8.533-3.823 8.533-8.533s-3.823-8.533-8.533-8.533h-42.667v-17.067h8.533c4.71 0 8.533-3.823 8.533-8.533s-3.823-8.533-8.533-8.533h-8.533v-17.068h8.533c4.71 0 8.533-3.823 8.533-8.533s-3.823-8.533-8.533-8.533h-8.533v-17.067h42.667c4.71 0 8.533-3.823 8.533-8.533s-3.823-8.534-8.533-8.534h-42.667v-34.133h119.47v247.47c0 4.71 3.823 8.533 8.533 8.533s8.533-3.823 8.533-8.533v-256c0-4.71-3.823-8.533-8.533-8.533h-136.53c-4.71 0-8.533 3.823-8.533 8.533v256c0 4.71 3.823 8.533 8.533 8.533z"/><path d="m8.533 273.07c4.71 0 8.533-3.823 8.533-8.533v-221.87c0-12.442 13.158-25.6 25.6-25.6h51.2c4.71 0 8.533-3.823 8.533-8.533s-3.822-8.534-8.532-8.534h-51.2c-21.931 0-42.667 20.736-42.667 42.667v221.87c0 4.71 3.823 8.533 8.533 8.533z"/><path d="m384 102.4c-4.71 0-8.533 3.823-8.533 8.533v153.6c0 4.71 3.823 8.533 8.533 8.533s8.533-3.823 8.533-8.533v-153.6c0-4.71-3.823-8.533-8.533-8.533z"/>			<path d="m332.8 110.93v153.6c0 4.71 3.823 8.533 8.533 8.533s8.533-3.823 8.533-8.533v-153.6c0-4.71-3.823-8.533-8.533-8.533s-8.533 3.823-8.533 8.533z"/><path d="m349.87 494.93h-8.533v-8.533c0-4.71-3.823-8.533-8.533-8.533s-8.533 3.823-8.533 8.533v8.533h-17.068v-8.533c0-4.71-3.823-8.533-8.533-8.533s-8.533 3.823-8.533 8.533v8.533h-17.067v-8.533c0-4.71-3.823-8.533-8.533-8.533s-8.533 3.823-8.533 8.533v8.533h-17.067v-8.533c0-4.71-3.823-8.533-8.533-8.533s-8.533 3.823-8.533 8.533v8.533h-17.068v-8.533c0-4.71-3.823-8.533-8.533-8.533s-8.533 3.823-8.533 8.533v8.533h-17.067v-8.533c0-4.71-3.823-8.533-8.533-8.533s-8.533 3.823-8.533 8.533v8.533h-17.067v-8.533c0-4.71-3.823-8.533-8.533-8.533s-8.533 3.823-8.533 8.533v8.533h-17.068v-8.533c0-4.71-3.823-8.533-8.533-8.533s-8.533 3.823-8.533 8.533v8.533h-17.067v-8.533c0-4.71-3.823-8.533-8.533-8.533s-8.534 3.823-8.534 8.533v8.533h-8.533c-4.71 0-8.533 3.823-8.533 8.533s3.822 8.534 8.533 8.534h307.2c4.71 0 8.533-3.823 8.533-8.533s-3.823-8.534-8.533-8.534z"/><path d="m298.67 273.07c4.71 0 8.533-3.823 8.533-8.533v-185.28l34.133-54.613 27.273 43.631h-35.806c-4.71 0-8.533 3.823-8.533 8.533s3.823 8.533 8.533 8.533h51.2c3.106 0 5.956-1.681 7.467-4.395 1.502-2.714 1.417-6.033-0.23-8.661l-42.667-68.266c-3.123-4.992-11.349-4.992-14.473 0l-42.667 68.266c-0.845 1.357-1.297 2.918-1.297 4.523v187.73c0 4.711 3.823 8.534 8.534 8.534z"/><path d="M469.333,0H384c-4.71,0-8.533,3.823-8.533,8.533s3.823,8.533,8.533,8.533h85.333c12.442,0,25.6,13.158,25.6,25.6v307.2     c0,12.442-13.158,25.6-25.6,25.6H42.667c-12.442,0-25.6-13.158-25.6-25.6V307.2h452.267c4.71,0,8.533-3.823,8.533-8.533     s-3.823-8.533-8.533-8.533H8.533c-4.71,0-8.533,3.823-8.533,8.533v51.2c0,21.931,20.736,42.667,42.667,42.667h426.667     c21.931,0,42.667-20.736,42.667-42.667v-307.2C512,20.736,491.264,0,469.333,0z"/><path d="m238.93 341.33c0 9.412 7.654 17.067 17.067 17.067 9.412 0 17.067-7.654 17.067-17.067 0-9.412-7.654-17.067-17.067-17.067-9.412 1e-3 -17.067 7.655-17.067 17.067z"/><path d="m298.67 460.8c4.71 0 8.533-3.823 8.533-8.533v-34.133c0-4.71-3.823-8.533-8.533-8.533s-8.533 3.823-8.533 8.533v34.133c-1e-3 4.71 3.822 8.533 8.533 8.533z"/><path d="m221.87 452.27v-34.133c0-4.71-3.823-8.533-8.533-8.533s-8.533 3.823-8.533 8.533v34.133c0 4.71 3.823 8.533 8.533 8.533s8.533-3.823 8.533-8.533z"/><path d="m443.73 460.8h-17.067c-18.825 0-34.133 15.309-34.133 34.133v8.533c0 4.71 3.823 8.533 8.533 8.533h68.267c4.71 0 8.533-3.823 8.533-8.533v-8.533c1e-3 -18.824-15.308-34.133-34.133-34.133zm-34.133 34.133c0-9.412 7.654-17.067 17.067-17.067h17.067c9.412 0 17.067 7.654 17.067 17.067h-51.201z"/></g></svg>