<?xml version="1.0" encoding="UTF-8"?><svg width="264px" height="264px" preserveAspectRatio="xMidYMid" version="1.1" viewBox="-4 0 264 264" xmlns="http://www.w3.org/2000/svg"><path d="m255.86 59.62c0.094924 0.35134 0.14436 0.7136 0.14436 1.0775v56.568c0 1.4779-0.79059 2.8428-2.0726 3.578l-47.479 27.335v54.181c0 1.4745-0.78366 2.8356-2.0623 3.578l-99.108 57.053c-0.22685 0.12889-0.47432 0.21138-0.7218 0.29903-0.092802 0.030934-0.18045 0.087646-0.27841 0.11342-0.6928 0.18244-1.421 0.18244-2.1138 0-0.11342-0.030934-0.21654-0.092802-0.32481-0.13405-0.22685-0.082491-0.46401-0.15467-0.68055-0.27841l-99.087-57.053c-1.2812-0.73602-2.0726-2.1005-2.0726-3.578v-169.7c0-0.37121 0.051557-0.73211 0.14436-1.0827 0.030934-0.11858 0.10311-0.22685 0.14436-0.34543 0.077335-0.21654 0.14951-0.43823 0.26294-0.6393 0.077335-0.13405 0.19076-0.24232 0.28356-0.36605 0.11858-0.16498 0.22685-0.33512 0.36605-0.47948 0.11858-0.11858 0.27325-0.20623 0.4073-0.30934 0.14951-0.12374 0.28356-0.25778 0.4537-0.35574h0.0051557l49.546-28.526c1.2767-0.73466 2.8478-0.73466 4.1245 0l49.546 28.526h0.010311c0.16498 0.10311 0.30418 0.23201 0.4537 0.35059 0.13405 0.10311 0.28356 0.19592 0.40214 0.30934 0.14436 0.14951 0.24747 0.31965 0.37121 0.48463 0.087647 0.12374 0.20623 0.23201 0.27841 0.36605 0.11858 0.20623 0.1856 0.42277 0.2681 0.6393 0.041246 0.11858 0.11342 0.22685 0.14436 0.35059 0.094925 0.35134 0.14346 0.7136 0.14436 1.0775v106l41.287-23.773v-54.186c0-0.3609 0.051557-0.72695 0.14436-1.0724 0.03609-0.12374 0.10311-0.23201 0.14436-0.35059 0.082491-0.21654 0.15467-0.43823 0.2681-0.6393 0.077335-0.13405 0.19076-0.24232 0.27841-0.36605 0.12374-0.16498 0.22685-0.33512 0.37121-0.47948 0.11858-0.11858 0.2681-0.20623 0.40214-0.30934 0.15467-0.12374 0.28872-0.25778 0.4537-0.35574h0.005155l49.551-28.526c1.2764-0.73572 2.8481-0.73572 4.1245 0l49.546 28.526c0.17529 0.10311 0.30934 0.23201 0.46401 0.35059 0.12889 0.10311 0.27841 0.19592 0.39699 0.30934 0.14436 0.14951 0.24747 0.31965 0.37121 0.48463 0.092802 0.12374 0.20623 0.23201 0.27841 0.36605 0.11858 0.20107 0.1856 0.42277 0.2681 0.6393 0.046401 0.11858 0.11342 0.22685 0.14436 0.35059zm-8.115 55.259v-47.04l-17.339 9.9814-23.953 13.791v47.04l41.297-23.773h-0.005156zm-49.546 85.094v-47.071l-23.561 13.456-67.282 38.399v47.515l90.843-52.299zm-189.94-160.18v160.18l90.833 52.294v-47.504l-47.453-26.856-0.015467-0.010311-0.020623-0.010312c-0.15983-0.092802-0.29387-0.22685-0.44339-0.34027-0.12889-0.10311-0.27841-0.1856-0.39183-0.29903l-0.010311-0.015467c-0.13405-0.12889-0.22685-0.28872-0.34027-0.43308-0.10311-0.1392-0.22685-0.25778-0.30934-0.40214l-0.0051557-0.015467c-0.092802-0.15467-0.14951-0.34028-0.21654-0.51557-0.067024-0.15467-0.15467-0.29903-0.19592-0.46401v-0.005156c-0.051557-0.19592-0.061868-0.40214-0.082491-0.60321-0.020623-0.15467-0.061868-0.30934-0.061868-0.46401v-0.010311-110.75l-23.948-13.797-17.339-9.9711v-0.0051556zm45.422-30.903-41.282 23.763 41.271 23.763 41.276-23.768-41.276-23.757h0.010311zm21.468 148.3 23.948-13.786v-103.61l-17.339 9.9814-23.953 13.791v103.61l17.344-9.9865zm127.18-120.26-41.276 23.763 41.276 23.763 41.271-23.768-41.271-23.757zm-4.1297 54.676-23.953-13.791-17.339-9.9814v47.04l23.948 13.786 17.344 9.9865v-47.04zm-94.978 106.01 60.543-34.564 30.264-17.272-41.245-23.747-47.489 27.341-43.282 24.917 41.209 23.324z" fill="#ff4d5a"/></svg>