        <svg width="512" height="512" viewBox="0 0 368.2949958128088 359.1" className="css-1j8o68f">
        <defs id="SvgjsDefs1001"></defs>
        <g id="SvgjsG1007" featurekey="rootContainer" transform="matrix(3.5205881595611572,0,0,3.5205881595611572,0.041511643283507406,0)" fill="#f6f6f6">
        <path xmlns="http://www.w3.org/2000/svg" d="M50.8 102h5.8l1.8-.2 1.7-.3h1.7l1.9-.3 1.8-.4.9-.2.9-.3 1.7-.6 2-.8a54 54 0 0 0 15.3-9.4l1.4-1.2.7-.5.6-.4 1-.5.8-.5 1.5-1.2 1.5-1.5.8-1 .9-1.1a50.9 50.9 0 0 0 3.9-5.8 34.8 34.8 0 0 0 1.6-3.1l.2-.4.2-.4.3-.8.3-.9.2-.4v-.4l.4-1.2.2-.6v-.3h.1v-.2l.7-2.5c.2-.9.4-1.7.5-2.6a25.4 25.4 0 0 0 .2-2.6v-3.1c0-.3 0-1 .1-1.5v-2.1a21.3 21.3 0 0 0 .2-2.6v-2.6c0-.9-.1-1.1-.1-1.6l-.2-1.5c-.1-1-.4-2-.5-3s-.2-1-.3-1.4l-.3-1.4-.3-1.4v-1.7l-.4-1.4-.2-.7-.2-.7-.4-1.4-.5-1.4-.4-1-.5-1-1-2.1a40.7 40.7 0 0 1-1.8-4.1 3.6 3.6 0 0 0-.8-1.2l-.7-.6-.2-.3-.3-.5a25.7 25.7 0 0 0-1.6-2.3l-.8-1.1-.9-1.1-.4-.5-.2-.3-.2-.2h-.1l-.9-1-.5-.5-.5-.5-.9-1.1-1.1-1a47.9 47.9 0 0 0-3.8-3l-.1-.5-1.3-.9A29 29 0 0 0 72 .4h-3.1a.8.8 0 0 0-.6 1.2A3.9 3.9 0 0 0 69.9 3l-.6.3-.4-.2a.9.9 0 0 0 0-.3c-.1-.5-.2-.9-1.3-1.3L65.3.7l-.6-.2h-.6L62.8 0l-1.3 1.2A48.5 48.5 0 0 0 39 2.4 31.1 31.1 0 0 0 31.4 4h-.5l-.5.2-1 .4-1 .5-.9.6-1.8 1.5-.8.6-.7.7c-1 .9-1.9 1.9-2.8 2.8L20 12.8l-1.4 1.5-.5.5-.5.5-1.1 1a55.1 55.1 0 0 0-7 7l.2-.5.6-1.1.6-1.1.6-1.1.6-1.2.6-1.2 1.2-2.4.4-.8.3-.6a1 1 0 0 0 0-.8 3.7 3.7 0 0 1-.2-1.2 17.1 17.1 0 0 0-2.1 1.1l-1.5 1.1-.8.6-.7.7-.8 1-.5 1-.5 1-.2.5-.3.5-.3.6-.4.8-.4.8-.7 1.7-.5 1.3-.5 1.3v.7l-.2.6-.3 1.3v.2h-.4v.3l-.2.7-.3 1.4-.2.7-.2.7-.4 1.7-.4 1.9-.2.9v2.8l-.6 1.9a38.3 38.3 0 0 0-.1 4.1 52.7 52.7 0 0 0-.7 8.7 5.2 5.2 0 0 0 0 .7c.5 3 .8 6 1.5 9l.4 1.8.5 1.8a18.3 18.3 0 0 0 .6 1.7l.4.8.4.8.9 1.7.5.8.5.8.5.8.5.8L7.8 77c1.4 2 2.9 4 4.5 5.9a35.6 35.6 0 0 0 2.6 2.7l.7.6.3.3.4.3 1.5 1.1 1 1a34 34 0 0 0 8.2 6.2l1.4.7 1.5.7.7.3.8.3 1.5.6.9.4.8.4.8.4 1 .4 1.9.7 1.9.6 1.6.4 1.6.4 1.6.3h5.7z"></path>
        </g>
        <g id="SvgjsG1008" featurekey="symbolFeature-0" transform="matrix(2.060326337814331,0,0,2.060326337814331,132.4918412181094,31.311832540019502)" fill="#ee2b47">
        <path xmlns="http://www.w3.org/2000/svg" d="M17.422,36.759c-0.195,0-0.392-0.057-0.564-0.175L1.167,25.825C0.895,25.639,0.732,25.33,0.732,25s0.163-0.638,0.435-0.825  l15.69-10.759c0.457-0.312,1.078-0.196,1.39,0.259c0.313,0.456,0.196,1.078-0.259,1.39L3.5,25l14.488,9.934  c0.456,0.313,0.572,0.936,0.259,1.391C18.054,36.606,17.741,36.759,17.422,36.759z"></path>
        <path xmlns="http://www.w3.org/2000/svg" d="M32.578,36.759c-0.318,0-0.632-0.151-0.826-0.435c-0.312-0.455-0.196-1.078,0.26-1.391L46.499,25l-14.487-9.934  c-0.456-0.313-0.571-0.935-0.26-1.39c0.313-0.455,0.935-0.572,1.391-0.259l15.69,10.759c0.272,0.187,0.435,0.495,0.435,0.825  s-0.162,0.639-0.435,0.825l-15.69,10.759C32.97,36.702,32.772,36.759,32.578,36.759z"></path>
        <path xmlns="http://www.w3.org/2000/svg" d="M20.557,41.697c-0.173,0.525-0.738,0.811-1.263,0.638l0,0c-0.524-0.173-0.81-0.737-0.637-1.263l10.787-32.77  c0.173-0.525,0.738-0.81,1.263-0.637l0,0c0.524,0.173,0.81,0.738,0.638,1.263L20.557,41.697z"></path>
        </g>
        <g id="SvgjsG1009" featurekey="nameFeature-0" transform="matrix(4.006570339202881,0,0,4.006570339202881,83.67948232980322,128.26250903084633)" fill="#ee2b47">
        <path d="M5.68 40 l-0.16 -0.08 c-0.04 -0.08 -0.12 -0.12 -0.2 -0.12 s-0.24 -0.08 -0.36 -0.16 s-0.4 -0.24 -0.68 -0.32 c-0.24 -0.08 -0.44 -0.2 -0.44 -0.24 s-0.12 -0.2 -0.28 -0.32 c-0.16 -0.16 -0.36 -0.4 -0.44 -0.56 c-0.12 -0.2 -0.24 -0.32 -0.28 -0.32 s-0.12 -0.2 -0.16 -0.44 l-0.04 -0.32 l0.04 -0.12 c0.04 0 0.08 -0.16 0.08 -0.36 s0 -0.56 0.04 -0.8 l0 -1.04 c0 -0.36 0.04 -0.6 0.08 -0.6 s0.08 -0.24 0.08 -0.48 c0 -0.28 0.04 -0.84 0.12 -1.28 l0.16 -0.96 c0.04 -0.08 0.08 -0.44 0.12 -0.8 c0 -0.32 0.12 -0.88 0.2 -1.2 c0.12 -0.48 0.24 -1.2 0.24 -1.56 l0 -0.16 c0 -0.08 0 -0.12 0.04 -0.12 s0.12 -0.2 0.16 -0.4 l0.28 -0.92 c0.08 -0.24 0.16 -0.68 0.2 -1.04 c0.04 -0.32 0.12 -0.68 0.2 -0.8 c0.08 -0.08 0.12 -0.16 0.12 -0.24 s-0.04 -0.12 -0.08 -0.12 l-0.12 0.04 c-0.04 0 -0.04 -0.04 -0.04 -0.08 c0.04 -0.12 0.08 -0.16 0.16 -0.16 l0.04 0 c0.04 0 0.08 -0.08 0.08 -0.16 c0 -0.12 0.04 -0.28 0.12 -0.36 c0.04 -0.04 0.08 -0.16 0.08 -0.24 c0 -0.04 0.08 -0.48 0.2 -0.88 c0.08 -0.36 0.16 -0.72 0.16 -0.92 l0 -0.08 c0 -0.08 0.04 -0.2 0.12 -0.2 c0.12 0 0.12 -0.08 0.12 -0.28 l0 -0.12 c0 -0.12 0.04 -0.2 0.08 -0.24 s0.08 -0.04 0.08 -0.12 l0 -0.12 c0 -0.2 0.04 -0.48 0.12 -0.56 s0.16 -0.6 0.16 -0.96 l-0.04 -0.32 l-0.04 -0.16 l0.08 0.12 c0.08 0 0.16 -0.12 0.24 -0.32 l0.08 -0.36 l0 -0.08 c0 -0.08 0.2 -0.48 0.32 -0.56 l0.04 -0.12 l-0.04 -0.2 l0.08 -0.6 l-0.04 -0.16 c0 -0.04 0.04 -0.04 0.08 -0.04 l0.04 0 c0.04 0 0.08 -0.08 0.08 -0.16 c0.04 -0.12 0.04 -0.24 0.04 -0.28 c0.04 -0.32 0.36 -1.4 0.4 -1.48 l0.04 -0.08 l-0.04 -0.08 l0.04 -0.24 c0.08 -0.08 0.16 -0.36 0.2 -0.56 c0 -0.2 0.08 -0.56 0.16 -0.76 c0.08 -0.36 0.12 -0.56 0.12 -0.68 c0 -0.08 0 -0.12 -0.08 -0.12 l-0.12 0.04 l0.04 -0.2 l0.08 -0.12 l0.04 0 c0.04 0.04 0.08 0.08 0.12 0.08 s0.08 -0.04 0.08 -0.12 l0 -0.08 c0 -0.08 -0.12 -0.12 -0.24 -0.12 c-0.08 0 -0.16 0 -0.16 0.08 c-0.08 0.2 -2.12 1.76 -2.32 1.76 c-0.04 0 -0.08 0.04 -0.08 0.08 s-0.12 0.12 -0.24 0.24 l-0.56 0.48 c-0.16 0.16 -0.28 0.32 -0.36 0.32 l-0.04 0 c-0.12 0 -0.32 0.24 -0.32 0.4 l0 0.04 c0 0.08 -0.08 0.2 -0.2 0.32 s-0.24 0.28 -0.24 0.32 l0 0.04 c0 0.04 0.2 0.08 0.44 0.12 c0.28 0.04 0.4 0.08 0.4 0.12 s-0.04 0.12 -0.12 0.2 l-0.12 0.16 l0.04 0.04 l0.2 -0.04 c0 0.04 -0.12 0.08 -0.28 0.16 l-0.36 0.16 l0.08 0 l0.96 -0.12 l-0.12 0.08 c-1.16 0.56 -1.72 0.8 -1.84 0.8 l-0.04 0 l0 -0.08 c0 -0.04 -0.08 -0.08 -0.2 -0.08 c-0.16 0 -0.44 -0.16 -0.88 -0.52 c-0.28 -0.28 -0.56 -0.48 -0.56 -0.56 l0 -0.04 l-0.08 -0.2 c-0.16 -0.24 -0.76 -1.44 -0.76 -1.6 l0 -0.04 c0 -0.16 0.24 -0.56 0.96 -1.44 c0.32 -0.44 0.68 -0.84 0.76 -0.84 c0.04 0 0.12 0 0.12 -0.08 s0.2 -0.2 0.4 -0.4 c0.2 -0.16 0.4 -0.32 0.4 -0.4 c0 -0.16 0.4 -0.56 0.76 -0.72 c0.16 -0.08 0.28 -0.16 0.28 -0.24 l0 -0.04 l0.12 0 c0.2 0 1 -0.56 1 -0.72 c0 -0.08 0.68 -0.6 1.16 -0.84 c0.2 -0.08 0.48 -0.24 0.6 -0.32 l0.64 -0.36 c0.24 -0.08 0.48 -0.2 0.52 -0.28 s0.16 -0.12 0.28 -0.12 c0.08 0 0.16 -0.04 0.16 -0.12 c0 -0.04 0.12 -0.12 0.32 -0.12 c0.32 -0.08 0.76 -0.6 0.76 -0.88 l0 -0.04 c0 -0.04 0.04 -0.12 0.12 -0.16 s0.12 -0.12 0.12 -0.2 l0 -0.04 c0 -0.12 0.12 -0.16 0.4 -0.16 l0.24 0 c0.28 0 0.36 0.04 0.4 0.24 s0.16 0.28 0.32 0.28 c0.08 0 0.2 -0.04 0.28 -0.08 l0.32 -0.16 l0.4 -0.08 c0.16 -0.04 0.32 -0.12 0.32 -0.16 s0.04 -0.04 0.04 -0.04 l0.12 0 c0.08 0 0.16 -0.04 0.2 -0.08 c0.08 -0.08 0.12 -0.12 0.16 -0.12 l0.04 0.04 c0 0.08 0.04 0.08 0.12 0.08 c0.12 0 0.28 -0.04 0.48 -0.16 c0.16 -0.12 0.4 -0.2 0.48 -0.2 s0.36 -0.08 0.56 -0.16 l0.48 -0.08 l0.24 0.04 l0.04 -0.04 l-0.08 -0.12 l0.36 0.04 l0.28 -0.08 c0.12 -0.04 0.44 -0.08 0.72 -0.08 l0.56 -0.08 c0.08 -0.08 0.28 -0.16 0.36 -0.16 s0.12 0.04 0.12 0.08 l0 0.04 l0.04 0.04 l0.12 -0.04 c0.28 -0.08 1.2 -0.2 1.48 -0.2 l0.36 0.04 l0.68 -0.04 l0.4 0 c0.12 0 0.2 0 0.2 0.04 l0.12 0.04 l0.36 -0.12 c0.08 0 0.12 0.04 0.12 0.08 c0.04 0.04 0.16 0.04 0.32 0.04 l0.4 0 c0.56 0 1.56 0.12 1.6 0.24 c0 0.04 0.16 0.08 0.36 0.12 c0.64 0.08 1.72 0.64 2.56 1.32 c0.16 0.12 0.32 0.2 0.36 0.2 s0.12 0.08 0.16 0.2 s0.16 0.2 0.2 0.2 s0.08 0.04 0.12 0.12 c0 0.08 0.12 0.24 0.24 0.36 c0.72 0.68 1.76 2.72 1.76 3.36 l0 0.08 l0.04 0.48 l0.08 0.28 c0 0.28 -0.16 0.44 -0.4 0.44 c-0.12 0 -0.2 0.04 -0.2 0.16 l0 0.44 c0 0.04 0.04 0.08 0.08 0.08 c0.12 -0.04 0.2 -0.08 0.2 -0.16 s-0.04 -0.12 -0.08 -0.16 l-0.04 -0.08 c0 -0.04 0.04 -0.04 0.12 -0.08 l0.12 0 c0.04 0 0.04 0 0.04 0.08 l0 0.12 c0 0.12 -0.04 0.28 -0.08 0.36 l0.04 0.36 c0 0.24 -0.2 0.6 -0.36 0.6 l-0.12 0 c-0.04 0 -0.08 0.04 -0.12 0.08 c0 0.04 0 0.04 0.04 0.04 l0.12 -0.04 l0.04 0.04 c0 0.12 -0.04 0.16 -0.12 0.16 s-0.16 -0.04 -0.24 -0.08 c-0.12 -0.12 -0.2 -0.16 -0.28 -0.16 c-0.04 0 -0.04 0.04 -0.04 0.08 l0 0.04 c0 0.08 -0.04 0.24 -0.16 0.36 l-0.08 0.16 l0.04 0.08 l0.08 0.04 l0 -0.08 c0 -0.04 0.04 -0.08 0.08 -0.08 c0.08 0 0.12 0 0.12 0.04 l0 0.04 c0 0.2 -0.16 0.28 -0.4 0.32 c-0.28 0.04 -0.52 0.16 -0.52 0.28 l0.04 0.12 c0 0.04 0 0.04 -0.04 0.04 l-0.08 0.04 l0.04 0.12 c0 0.04 -0.04 0.08 -0.12 0.12 c-0.12 0 -0.24 0.12 -0.28 0.24 c-0.08 0.24 -0.08 0.28 -0.08 0.48 c0 0.04 -0.08 0.12 -0.2 0.12 c-0.08 0.04 -0.16 0.12 -0.16 0.2 l0 0.04 c0 0.08 -0.04 0.12 -0.12 0.12 s-0.12 0 -0.12 -0.04 l0.12 -0.28 l0 -0.04 c-0.04 0 -0.12 0.08 -0.2 0.2 l-0.2 0.32 l0.08 -0.04 c0.08 0 0.12 0 0.12 0.08 c0 0.04 -0.08 0.12 -0.16 0.16 l-0.16 0.08 l0 0.04 c0 0.04 -0.12 0.08 -0.28 0.08 c-0.12 0 -0.16 0 -0.16 0.04 l0.36 0.32 l-0.12 0.08 c-0.08 0.04 -0.2 0.12 -0.28 0.12 s-0.16 0.12 -0.24 0.2 c-0.2 0.24 -0.48 0.4 -0.76 0.44 c-0.12 0 -0.32 0.04 -0.44 0.12 l-0.16 0.12 l0.04 0.04 l0.12 -0.04 c0.12 0 0.28 0.04 0.28 0.08 l0 0.04 c0 0.12 -0.56 0.36 -0.8 0.36 l-0.2 -0.04 c-0.08 0 -0.16 0.04 -0.2 0.08 l-0.12 0.08 l0.12 -0.04 c0.12 0 0.28 0 0.36 0.04 l0.08 0.08 c0 0.04 -0.08 0.04 -0.24 0.04 c-0.2 0 -0.28 0.04 -0.28 0.12 s-0.04 0.16 -0.08 0.16 c-0.12 0 -0.28 0.2 -0.32 0.4 c-0.04 0.08 -0.08 0.12 -0.16 0.12 l-0.04 0 c-0.08 0 -0.28 0.12 -0.48 0.36 c-0.16 0.2 -0.44 0.4 -0.6 0.44 c-0.16 0 -0.4 0.2 -0.56 0.36 c-0.36 0.4 -0.76 0.68 -0.92 0.68 l-0.04 0 c-0.04 0 -0.08 0.04 -0.08 0.08 c0.04 0.04 0.08 0.08 0.12 0.08 s0.08 0.04 0.08 0.08 l0 0.04 c-0.04 0.04 -0.08 0.04 -0.16 0.04 l-0.08 0 c-0.16 0 -0.52 0.16 -0.52 0.32 c0 0.04 -0.12 0.12 -0.24 0.12 s-0.16 0.04 -0.16 0.04 c0.12 0.04 0.16 0.08 0.16 0.12 s-0.12 0.08 -0.24 0.08 c-0.16 0 -0.4 0.08 -0.52 0.12 l-0.16 0.08 l0.16 0.04 c0.12 0 0.24 0.04 0.24 0.08 s-0.04 0.08 -0.08 0.08 l-0.28 -0.08 c-0.08 0 -0.16 0.04 -0.16 0.12 l0.16 0.16 l-0.12 0 c-0.12 0 -0.32 0.08 -0.48 0.2 c-0.16 0.08 -0.28 0.12 -0.36 0.12 l-0.04 0 c-0.04 0 -0.08 0.04 -0.12 0.08 c-0.08 0.16 -0.68 0.6 -0.8 0.6 l-0.04 -0.04 l0.16 -0.16 l-0.12 -0.04 c-0.12 0 -0.48 0.4 -0.48 0.52 c0 0.04 -0.08 0.12 -0.16 0.16 c-0.12 0.04 -0.28 0.12 -0.32 0.2 c-0.08 0.08 -0.2 0.12 -0.32 0.12 c-0.08 0 -0.16 0.08 -0.16 0.16 l0 0.04 c0 0.04 -0.04 0.08 -0.12 0.08 s-0.12 0.04 -0.12 0.12 c0 0.04 -0.12 0.08 -0.28 0.08 c-0.2 0 -0.24 0.04 -0.24 0.12 l0 0.08 c0 0.12 -0.04 0.2 -0.08 0.2 l-0.08 -0.04 l0.04 -0.08 c0 -0.04 0 -0.08 -0.04 -0.08 l-0.08 0.04 c-0.08 0.04 -0.2 0.04 -0.2 0.04 c-0.04 0 -0.04 0.08 -0.04 0.16 l0 0.04 c0 0.08 -0.12 0.16 -0.24 0.24 l-0.36 0.16 l0.16 -0.16 l-0.04 -0.04 c-0.08 0 -0.2 0.08 -0.24 0.16 c-0.08 0.08 -0.2 0.12 -0.28 0.12 s-0.2 0.12 -0.28 0.2 c-0.08 0.12 -0.2 0.2 -0.24 0.2 s-0.48 0.16 -0.92 0.36 c-0.4 0.2 -0.64 0.28 -0.8 0.28 l-0.16 -0.08 c-0.28 -0.2 -0.48 -0.4 -0.48 -0.56 c-0.04 -0.08 -0.16 -0.24 -0.36 -0.4 s-0.32 -0.4 -0.4 -0.68 c-0.08 -0.4 -0.16 -0.56 -0.28 -0.56 s-0.24 0.16 -0.36 0.56 c-0.08 0.4 -0.2 0.6 -0.28 0.6 c-0.04 0 -0.08 -0.12 -0.08 -0.28 l0 -0.12 c0 -0.12 0 -0.2 0.04 -0.2 s0.04 -0.04 0.04 -0.12 c0 -0.04 0.04 -0.2 0.12 -0.36 c0.12 -0.12 0.16 -0.32 0.16 -0.44 l0 -0.12 l0.04 -0.32 c0.08 -0.16 0.08 -0.36 0.08 -0.48 c0 -0.08 0 -0.16 0.04 -0.16 c0.08 0 0.2 -0.36 0.2 -0.56 l-0.04 -0.2 c0 -0.04 0.04 -0.04 0.12 -0.08 s0.16 -0.16 0.16 -0.32 l0 -0.12 c0 -0.2 0.04 -0.4 0.12 -0.4 l0.04 -0.04 l-0.08 -0.32 c0 -0.08 0.04 -0.2 0.08 -0.28 c0.08 -0.12 0.16 -0.28 0.16 -0.36 l0 -0.08 c0 -0.16 0.12 -0.56 0.2 -0.56 s0.16 0.08 0.16 0.16 s-0.04 0.12 -0.08 0.16 s-0.08 0.12 -0.08 0.2 l0 0.08 l0.08 0.16 l-0.04 0.08 c-0.04 0 -0.12 0.16 -0.12 0.28 s-0.12 0.56 -0.24 0.96 s-0.2 0.8 -0.2 0.88 l0 0.08 c0 0.04 -0.04 0.08 -0.08 0.08 l-0.08 0.08 l0.08 0.04 c0.16 0 0.72 -0.2 1.08 -0.4 c0.08 -0.04 0.2 -0.08 0.28 -0.08 l0.04 0 l0.04 0.08 l-0.08 0.04 c-0.04 0.04 -0.08 0.08 -0.08 0.16 l0.04 0.04 l0.08 -0.08 c0.08 -0.04 0.12 -0.16 0.12 -0.24 l0 -0.04 c0 -0.12 0.2 -0.24 0.32 -0.24 l0.12 0.04 l0.16 0.08 c0.04 0 0.08 -0.04 0.08 -0.08 l-0.04 -0.12 l0.08 -0.12 c0.12 -0.12 0.28 -0.2 0.36 -0.2 c0.04 0 0.04 0 0.04 0.04 l0 0.04 c0 0.08 0.08 0.12 0.24 0.12 l0.24 -0.04 c0.12 -0.04 0.2 -0.12 0.2 -0.16 l-0.04 -0.16 c0 -0.04 0 -0.08 0.04 -0.08 s0.04 0 0.04 -0.04 l-0.08 -0.04 l-0.08 -0.08 c0.08 0 0.16 0 0.28 0.08 l0.16 0.04 l0.08 -0.04 c0.04 -0.08 0.16 -0.12 0.24 -0.12 l0.16 0 l-0.12 -0.04 c-0.08 -0.04 -0.16 -0.12 -0.2 -0.2 l0.04 -0.08 l0.08 0 c0.08 0 0.16 -0.04 0.24 -0.12 c0.08 -0.12 0.16 -0.16 0.36 -0.16 l0.2 0 c0.2 0 0.32 0 0.32 -0.04 l-0.08 -0.08 l-0.04 -0.12 l0.16 0.04 c0.08 0 0.12 0 0.12 -0.04 c0.04 -0.08 0.12 -0.08 0.2 -0.08 l0.04 0 c0.04 0 0.12 -0.08 0.16 -0.16 c0.04 -0.2 0.16 -0.28 0.36 -0.28 c0.16 0 0.28 -0.04 0.28 -0.08 l-0.04 -0.08 c0 -0.16 0.2 -0.4 0.32 -0.4 s0.28 -0.12 0.36 -0.24 c0.12 -0.12 0.2 -0.2 0.24 -0.2 l0.08 0 c0.04 0 0.04 0 0.04 -0.04 c0 -0.08 0.08 -0.12 0.16 -0.12 c0.12 0 0.44 -0.2 0.72 -0.44 s0.6 -0.44 0.76 -0.44 c0.12 0 0.24 -0.04 0.28 -0.12 c0 -0.08 0.12 -0.16 0.2 -0.2 c0.12 -0.04 0.28 -0.16 0.32 -0.28 c0.12 -0.16 0.28 -0.2 0.72 -0.24 c0.04 0 0.08 -0.04 0.08 -0.08 l-0.04 -0.12 c0 -0.12 0.08 -0.16 0.24 -0.24 l0.32 -0.08 l0.12 0 l-0.08 -0.16 l0.08 -0.16 l-0.04 -0.2 l0.04 -0.04 l0.12 0.04 c0.12 0 0.32 -0.08 0.52 -0.2 s0.44 -0.24 0.52 -0.24 s0.12 0 0.12 -0.08 l-0.08 -0.24 c0 -0.04 0.04 -0.04 0.08 -0.04 l0.08 0.04 c0.04 0 0.08 -0.04 0.12 -0.08 c0 -0.04 0.08 -0.04 0.12 -0.04 l0.16 0 l-0.04 -0.08 c0 -0.04 0.04 -0.04 0.12 -0.04 l0.04 0 c0.08 0 0.12 -0.08 0.12 -0.16 l0 -0.04 c0 -0.12 0.08 -0.2 0.2 -0.28 c0.16 -0.08 0.28 -0.2 0.28 -0.28 c0.04 -0.08 0.12 -0.12 0.24 -0.12 c0.08 0 0.2 -0.12 0.24 -0.24 s0.16 -0.28 0.24 -0.28 c0.2 -0.08 0.92 -0.88 0.92 -1.04 l0 -0.04 c0 -0.04 0 -0.04 0.04 -0.04 l0.12 0 c0.16 0 0.32 -0.08 0.52 -0.32 c0.12 -0.16 0.32 -0.28 0.4 -0.28 s0.12 -0.04 0.12 -0.08 l-0.04 -0.08 l-0.12 0.04 l0.28 -0.36 c0.32 -0.4 1 -1.6 1 -1.72 l0.2 -0.4 c0.24 -0.32 0.4 -0.84 0.4 -1.08 l-0.08 -0.2 l0.08 -0.2 c0 -0.2 -0.32 -0.36 -0.92 -0.6 c-1.08 -0.44 -2.52 -0.64 -4.52 -0.64 l-0.2 0 c-1.04 0 -3.12 0.24 -4.24 0.48 c-0.28 0.08 -0.64 0.12 -0.8 0.12 c-0.16 0.04 -0.36 0.08 -0.4 0.12 s-0.32 0.08 -0.56 0.12 c-0.72 0.08 -1.12 0.2 -1.12 0.32 c0 0.04 -0.12 0.12 -0.32 0.16 c-0.16 0.04 -0.4 0.08 -0.52 0.16 l-0.36 0.12 c-0.48 0.04 -0.8 0.28 -0.88 0.64 l-0.04 0.24 l0.04 0.12 c0.04 0 0.08 -0.04 0.08 -0.12 l0 -0.04 l0.04 0.08 c0 0.24 -0.12 0.76 -0.32 1.44 s-0.24 0.88 -0.32 0.88 l-0.08 -0.04 l-0.08 -0.16 l0 -0.08 l-0.08 0 c-0.04 0 -0.08 0.04 -0.08 0.12 s-0.04 0.2 -0.12 0.24 c-0.04 0.08 -0.08 0.24 -0.08 0.36 l0 0.12 c0 0.04 0 0.12 -0.04 0.12 c-0.08 0 -0.08 0.04 -0.08 0.08 c0 0.08 0.08 0.12 0.2 0.12 c0.16 0 0.28 0.16 0.28 0.28 c0 0.08 -0.04 0.12 -0.12 0.16 c-0.04 0.04 -0.08 0.12 -0.08 0.2 l0 0.12 c0 0.12 -0.04 0.48 -0.12 0.72 l-0.16 0.56 c0 0.08 0 0.12 -0.08 0.16 c-0.08 0.08 -0.16 0.32 -0.16 0.48 l0 0.08 l-0.08 0.04 c-0.04 0 -0.08 -0.04 -0.08 -0.08 s-0.04 -0.08 -0.08 -0.08 c-0.08 0 -0.28 0.2 -0.32 0.36 c0 0.16 0.04 0.24 0.12 0.24 c0.04 0 0.08 -0.04 0.08 -0.16 s0.08 -0.16 0.12 -0.16 s0.12 0.08 0.12 0.24 c0 0.2 -0.04 0.28 -0.2 0.28 s-0.28 0.04 -0.28 0.12 c0 0.04 0.04 0.08 0.12 0.08 l0.24 -0.04 c0.08 0 0.12 0.04 0.12 0.08 s-0.04 0.12 -0.12 0.2 l-0.08 0.16 l0 0.08 c0 0.16 -0.04 0.44 -0.12 0.44 l-0.04 0.04 l0.04 0.24 c0 0.08 -0.04 0.12 -0.08 0.16 l-0.12 0.04 c-0.08 0 -0.12 -0.04 -0.12 -0.16 l0.08 -0.44 c0.08 -0.28 0.12 -0.52 0.12 -0.6 l-0.04 -0.04 c-0.08 0 -0.24 0.32 -0.24 0.52 c0 0.16 -0.04 0.28 -0.08 0.32 l-0.12 0.32 l-0.2 0.68 l-0.08 0.52 l0 0.08 c0 0.08 -0.04 0.16 -0.08 0.16 c-0.08 0.04 -0.12 0.16 -0.12 0.32 l0 0.12 c0 0.12 -0.04 0.24 -0.08 0.28 l-0.04 0.12 l0.04 0.04 l-0.12 0.32 c-0.12 0.2 -0.16 0.36 -0.16 0.44 s0 0.12 0.08 0.12 c0.04 0 0.12 0.04 0.12 0.08 l-0.04 0.08 l-0.2 -0.04 c-0.04 0 -0.04 0 -0.04 0.08 l0.04 0.36 l0.04 0.12 c0 0.04 -0.04 0.04 -0.04 0.04 l-0.12 -0.04 l0 0.08 c0 0.08 -0.04 0.2 -0.08 0.28 c-0.12 0.16 -0.16 0.36 -0.16 0.52 s-0.04 0.4 -0.12 0.56 c-0.08 0.12 -0.12 0.24 -0.12 0.32 l0.04 0.24 c0 0.08 -0.04 0.12 -0.08 0.12 s-0.08 0.04 -0.08 0.08 l0.04 0.08 l0 0.12 l-0.04 0.24 l-0.08 0.16 l0 0.08 c0 0.08 -0.04 0.2 -0.08 0.28 c-0.08 0.12 -0.2 0.44 -0.24 0.72 l-0.24 1.12 c-0.12 0.32 -0.16 0.56 -0.16 0.76 c0 0.16 0.04 0.24 0.12 0.24 c0.12 0 0.28 -0.24 0.28 -0.36 l-0.04 -0.2 l0.04 -0.04 c0.12 0 0.16 -0.2 0.16 -0.36 c0 -0.08 0 -0.16 -0.04 -0.16 s-0.04 -0.04 -0.04 -0.08 s0 -0.04 0.08 -0.08 l0.16 -0.08 l0.04 0.08 l-0.12 0.52 c-0.08 0.28 -0.12 0.52 -0.12 0.64 l0 0.04 l-0.44 1.84 c-0.08 0.4 -0.16 0.64 -0.24 0.64 c-0.04 0 -0.08 -0.12 -0.08 -0.32 s-0.04 -0.36 -0.08 -0.36 c-0.12 0 -0.4 0.68 -0.4 0.96 l0.04 0.08 c0.04 0.04 0.04 0.12 0.04 0.2 l0 0.12 c-0.04 0.16 -0.04 0.36 -0.04 0.48 s-0.04 0.28 -0.12 0.32 l-0.04 0.08 c0 0.04 0 0.08 0.08 0.12 l0.12 0.08 l-0.12 0 c-0.08 0 -0.16 0.08 -0.16 0.16 l0 0.12 c0 0.08 -0.04 0.2 -0.08 0.24 c-0.04 0.12 -0.08 0.32 -0.08 0.44 l0 0.12 c0 0.16 -0.04 0.32 -0.08 0.48 s-0.08 0.32 -0.08 0.44 l0.04 0.2 l-0.08 0.16 c-0.04 0.12 -0.08 0.28 -0.08 0.4 l0 0.12 c0 0.08 -0.04 0.12 -0.12 0.16 s-0.16 0.08 -0.16 0.12 l0 0.12 l-0.04 0.08 c-0.12 0 -0.16 0.04 -0.16 0.08 l0.16 0.08 l0.16 0 l-0.2 0.12 c-0.12 0.04 -0.16 0.08 -0.16 0.12 l0.04 0.04 c0.12 0 0.2 0 0.2 0.04 l0 0.12 c0.08 0.16 0.12 0.32 0.12 0.48 c0 0.12 0 0.24 -0.04 0.32 l-0.04 0.28 l0.04 0.2 l0.08 0.16 c0.04 0 0.08 -0.08 0.12 -0.2 c0.04 -0.16 0.04 -0.32 0.04 -0.36 l-0.04 -0.08 l0.08 -0.16 l0.04 -0.24 l0 -0.08 l-0.04 -0.04 c0 -0.04 0.04 -0.04 0.12 -0.04 l0.12 0 c0.08 0 0.08 0.08 0.08 0.2 s0 0.28 -0.08 0.4 c-0.04 0.12 -0.04 0.32 -0.04 0.48 l-0.12 0.92 c0 0.04 0 0.12 0.04 0.12 c0.08 0.12 0.2 0.72 0.2 1 l-0.04 0.12 l0 0.44 c0 0.08 0 0.12 -0.04 0.12 l-0.12 0 l-0.16 0.08 c-0.08 0.12 -0.12 0.16 -0.2 0.16 z M21.32 5 c0.08 0 0.12 -0.04 0.12 -0.04 c0 -0.04 -0.08 -0.08 -0.12 -0.12 l-0.08 0 l0 0.04 c0 0.08 0.04 0.12 0.08 0.12 z M22.28 5.560000000000002 l-0.04 -0.12 l-0.16 -0.16 l-0.08 0.04 l0 0.04 c0 0.08 0.08 0.12 0.28 0.2 z M20.04 5.399999999999999 l0.08 -0.04 l-0.04 -0.04 c0 -0.04 -0.04 -0.04 -0.04 -0.04 l-0.08 0.04 l0 0.04 z M21.68 5.399999999999999 l0.08 -0.04 l0 -0.04 l-0.08 -0.04 l-0.08 0.04 c0 0.04 0.04 0.08 0.08 0.08 z M23.24 5.640000000000001 l0.08 -0.04 c0.08 0 0.16 -0.08 0.16 -0.08 c-0.04 -0.04 -0.08 -0.04 -0.16 -0.04 s-0.16 0.04 -0.16 0.08 z M17.92 5.560000000000002 l0 -0.04 l-0.08 -0.04 l-0.08 0.04 c0 0.04 0 0.04 0.08 0.04 l0.08 0 z M22.68 5.560000000000002 l-0.04 -0.04 c0 -0.04 -0.04 -0.04 -0.04 -0.04 c-0.04 0 -0.08 0 -0.08 0.04 l0 0.04 l0.16 0 z M19.08 5.640000000000001 l-0.04 -0.04 l-0.24 0 l-0.04 0.04 l0.32 0 z M24.2 5.880000000000003 c0.04 0 0.08 -0.04 0.08 -0.12 l-0.04 -0.08 c-0.04 0 -0.08 0.04 -0.12 0.08 c0 0.08 0 0.12 0.08 0.12 z M19.2 5.960000000000001 c0.12 0 0.2 -0.04 0.2 -0.04 l0 -0.04 l-0.32 0 l-0.04 0.04 c0 0.04 0.04 0.04 0.16 0.04 z M17.16 6.200000000000003 c0.12 0 0.28 -0.04 0.28 -0.12 l-0.24 -0.04 c-0.12 0 -0.2 0.04 -0.2 0.08 l0 0.04 c0.04 0.04 0.08 0.04 0.16 0.04 z M20.64 6.159999999999997 c0.12 0 0.16 0 0.16 -0.04 l-0.04 -0.04 l-0.24 0 l0 0.04 s0.04 0.04 0.12 0.04 z M16.68 6.240000000000002 l-0.04 -0.04 c0 -0.04 -0.04 -0.04 -0.04 -0.04 l-0.08 0.04 l0 0.04 l0.16 0 z M16.24 6.359999999999999 l0.08 -0.04 l-0.04 -0.04 l-0.08 -0.04 l-0.04 0.08 z M20.24 6.600000000000001 c0.12 0 0.2 0 0.28 -0.08 l0.08 -0.04 l-0.04 -0.04 l-0.16 0.04 c-0.16 0 -0.28 0 -0.32 -0.04 l-0.12 -0.04 l-0.32 0.08 l0.2 0.08 z M22.28 6.560000000000002 c0.16 0 0.28 -0.04 0.28 -0.08 l-0.32 -0.04 c-0.16 0 -0.24 0 -0.24 0.04 l0.08 0.04 c0.04 0.04 0.12 0.04 0.2 0.04 z M21.44 6.520000000000003 l-0.16 -0.08 l-0.12 0.04 l0 0.04 l0.28 0 z M20.8 6.600000000000001 l0 -0.04 l-0.04 -0.08 l-0.04 0 l0 0.08 l0.04 0.04 l0.04 0 z M19.44 6.640000000000001 l0 -0.04 l-0.16 -0.08 c-0.08 -0.04 -0.12 -0.04 -0.2 -0.04 c-0.04 0 -0.08 0 -0.12 0.04 c0 0.04 0.08 0.08 0.24 0.08 z M23.56 6.68 c0.12 0 0.2 0 0.2 -0.04 c-0.04 -0.08 -0.12 -0.08 -0.24 -0.08 c-0.08 0 -0.16 0 -0.2 0.04 c0 0.04 0.08 0.08 0.24 0.08 z M16.08 6.640000000000001 l0.08 -0.04 l-0.04 -0.04 l-0.12 0 l0 0.04 z M17.64 7.039999999999999 l0 -0.2 c0 -0.08 0 -0.12 -0.04 -0.16 l-0.08 -0.04 c-0.04 0 -0.04 0.04 -0.04 0.12 l0.04 0.16 c0.08 0.08 0.08 0.12 0.12 0.12 z M18.84 6.840000000000003 l0.08 -0.04 l-0.04 -0.04 l-0.12 0 l0 0.04 z M17.36 6.920000000000002 l0 -0.04 l-0.08 -0.04 c-0.04 0 -0.04 0 -0.04 0.04 l0 0.04 l0.12 0 z M16.56 7.119999999999997 c0.04 0 0.08 -0.04 0.12 -0.08 l0.04 -0.08 l-0.04 -0.04 c-0.04 0 -0.12 0 -0.2 -0.04 l-0.08 -0.04 l-0.04 0.04 l0.04 0.08 c0.04 0.12 0.12 0.16 0.16 0.16 z M16.08 7.119999999999997 c0.08 0 0.16 0 0.16 -0.04 l-0.08 -0.08 c-0.04 -0.04 -0.08 -0.04 -0.12 -0.04 s-0.08 0 -0.12 0.04 l-0.04 0.08 c0 0.04 0.08 0.04 0.2 0.04 z M15.44 7.32 c0.08 0 0.12 -0.04 0.12 -0.04 c0 -0.04 -0.04 -0.04 -0.08 -0.04 l-0.08 0 l-0.04 0.04 c0 0.04 0.04 0.04 0.08 0.04 z M13.32 7.399999999999999 c0.08 0 0.12 -0.04 0.12 -0.04 l0 -0.04 l-0.08 -0.04 l-0.12 0 l-0.12 0.08 c0 0.04 0.08 0.04 0.2 0.04 z M14.96 7.600000000000001 c0.04 0 0.12 0 0.2 -0.08 l0.08 -0.08 l-0.04 -0.08 l-0.04 0 l-0.16 0.08 z M14.68 7.520000000000003 l0.08 -0.04 l-0.04 -0.04 l-0.12 0 l0 0.04 z M12.96 7.799999999999997 l0.08 -0.04 l-0.08 -0.04 s-0.04 0 -0.04 0.04 c0 0 0 0.04 0.04 0.04 z M12.72 8.280000000000001 l0 -0.2 c0 -0.08 -0.04 -0.12 -0.08 -0.12 l-0.04 0 l-0.04 0.08 l0.04 0.12 c0.04 0.08 0.08 0.12 0.12 0.12 z M29.04 9.04 l0.04 -0.08 l-0.04 -0.04 c0 -0.04 -0.04 -0.04 -0.04 -0.04 c-0.04 0 -0.04 0.04 -0.04 0.08 c0.04 0.04 0.04 0.08 0.08 0.08 z M11.6 10.32 c0.04 0 0.08 -0.08 0.12 -0.2 l0.04 -0.48 l0.04 -0.12 l-0.04 -0.04 l-0.12 0.2 c-0.08 0.16 -0.12 0.36 -0.12 0.48 c0 0.08 0.04 0.16 0.08 0.16 z M7.36 10.239999999999998 l0.08 -0.04 l0 -0.04 l-0.16 0 c0 0.04 0 0.08 0.08 0.08 z M11.24 11.36 c0.04 0 0.08 -0.08 0.16 -0.2 c0.04 -0.12 0.12 -0.24 0.16 -0.24 l0.04 -0.04 l-0.04 -0.16 c0 -0.08 0.04 -0.12 0.12 -0.12 s0.16 0 0.16 -0.04 l0 -0.04 c-0.04 -0.04 -0.08 -0.04 -0.16 -0.04 l-0.12 0 c-0.12 0 -0.2 0.04 -0.2 0.16 l0 0.12 c0 0.16 -0.04 0.32 -0.08 0.4 c-0.04 0.04 -0.04 0.12 -0.04 0.2 z M6.36 10.8 c0.08 0 0.16 -0.04 0.28 -0.12 l0.08 -0.12 c0 -0.04 0 -0.04 -0.08 -0.04 s-0.2 0.08 -0.28 0.16 l-0.04 0.08 c0 0.04 0 0.04 0.04 0.04 z M7.36 10.719999999999999 l0.08 -0.04 l-0.04 -0.04 l-0.12 0 l0 0.04 z M7.04 11 c0.04 0 0.08 -0.04 0.08 -0.08 l0.04 -0.08 l-0.04 -0.04 l-0.08 0.12 l0 0.08 z M29.2 10.920000000000002 l0.08 -0.04 l-0.08 -0.08 l-0.08 0.04 l0 0.04 z M6.48 11.120000000000001 c0.04 0 0.08 -0.04 0.08 -0.12 l0.04 -0.04 l-0.04 -0.04 l-0.12 0.16 z M6.48 11.399999999999999 c0.08 0 0.24 -0.08 0.32 -0.16 s0.12 -0.12 0.12 -0.16 l-0.28 0.04 c-0.12 0.08 -0.24 0.12 -0.24 0.2 c0 0.04 0.04 0.08 0.08 0.08 z M3.84 11.48 c0 0 0.08 -0.04 0.12 -0.16 l0.08 -0.12 l-0.12 0.08 l-0.12 0.16 c0 0.04 0 0.04 0.04 0.04 z M5.32 11.600000000000001 l0.08 -0.12 l0 -0.08 c-0.04 0 -0.08 0.04 -0.12 0.08 c0 0.08 0 0.12 0.04 0.12 z M5.96 11.719999999999999 c0.08 -0.04 0.16 -0.08 0.16 -0.12 l0 -0.04 c0 -0.04 0 -0.04 -0.04 -0.04 l-0.08 0 c-0.08 0 -0.2 0.04 -0.2 0.12 l0 0.04 c0 0.04 0.04 0.04 0.08 0.04 l0.08 0 z M28.88 12.36 c0.12 0 0.24 -0.04 0.28 -0.12 c0 -0.08 0 -0.12 -0.08 -0.12 l-0.12 0.04 c-0.12 0 -0.2 0.08 -0.2 0.12 s0.08 0.08 0.12 0.08 z M10 12.68 c0.04 0 0.12 -0.08 0.2 -0.16 c0.12 -0.12 0.16 -0.24 0.16 -0.24 l-0.04 0 c-0.08 0.04 -0.32 0.32 -0.32 0.4 z M28.64 12.84 c0.08 -0.04 0.16 -0.12 0.16 -0.16 c0 -0.08 0 -0.12 -0.04 -0.12 c-0.08 0 -0.2 0.08 -0.2 0.2 c0 0.04 0.04 0.08 0.08 0.08 z M5.04 12.96 c0.04 0 0.08 -0.04 0.08 -0.12 l0 -0.04 l-0.12 -0.08 l-0.28 -0.04 c0 0.04 0.04 0.08 0.08 0.12 c0.08 0.08 0.16 0.16 0.24 0.16 z M4.52 12.84 c0.04 0 0.04 -0.04 0.04 -0.04 l-0.08 -0.04 s-0.04 0 -0.04 0.04 z M10.8 14.36 l0.08 -0.04 l0.04 -0.08 l-0.2 -0.4 l0.04 -0.08 c0.04 0 0.12 0 0.16 0.08 l-0.04 -0.08 l-0.04 -0.16 c0 -0.04 0.04 -0.08 0.08 -0.12 c0.08 -0.04 0.08 -0.08 0.08 -0.12 c0 -0.08 0 -0.12 -0.04 -0.2 c-0.04 -0.12 -0.04 -0.16 -0.08 -0.2 c-0.04 0 -0.08 0.08 -0.12 0.2 c-0.08 0.12 -0.12 0.32 -0.12 0.44 s0 0.24 -0.04 0.28 c-0.04 0 -0.08 0.12 -0.08 0.24 l0 0.08 c0 0.04 0 0.04 0.04 0.04 l0.12 0 c0.04 0 0.08 0.04 0.08 0.08 s0 0.04 0.04 0.04 z M27.48 13.8 l0.08 -0.04 l0.04 -0.08 l0 -0.08 s0 -0.04 -0.04 -0.04 l-0.04 0 l-0.08 0.16 z M25.64 14.120000000000001 l0.08 -0.04 l0 -0.04 l-0.08 -0.04 l-0.04 0.08 s0 0.04 0.04 0.04 z M9.68 14.600000000000001 l0.2 -0.24 l-0.08 -0.04 c-0.04 0 -0.12 0.04 -0.12 0.12 l0 0.16 z M25.4 14.48 c0.12 0 0.2 -0.04 0.2 -0.08 c0 -0.08 -0.04 -0.08 -0.08 -0.08 s-0.12 0 -0.2 0.08 l-0.08 0.08 l0.16 0 z M10.52 14.68 c0.08 0 0.08 -0.04 0.08 -0.16 c0 -0.04 -0.04 -0.08 -0.08 -0.08 l-0.04 0 l-0.08 0.16 c0.04 0.04 0.08 0.08 0.12 0.08 z M24.16 14.8 c0.08 0 0.16 -0.04 0.24 -0.12 l0.08 -0.08 l-0.04 0 c-0.08 0 -0.16 0.04 -0.24 0.08 l-0.08 0.08 z M24.72 14.879999999999999 l0.08 -0.04 l-0.04 -0.04 l-0.12 0 l0 0.04 z M10.32 15.280000000000001 c0.08 0 0.16 -0.08 0.2 -0.16 l0.04 -0.12 l-0.04 -0.08 c0 -0.04 -0.04 -0.04 -0.08 -0.04 c-0.12 0 -0.24 0.12 -0.24 0.24 c0.04 0.08 0.08 0.16 0.12 0.16 z M7.44 15.16 l0.08 -0.04 c0.04 -0.08 0.04 -0.16 0.04 -0.2 l-0.04 0 c-0.04 0 -0.08 0.04 -0.08 0.12 l0 0.12 z M23.8 15.32 l0.12 -0.04 c0.08 0 0.16 -0.08 0.16 -0.12 s0 -0.08 -0.04 -0.08 l-0.2 0.04 c-0.08 0.04 -0.12 0.12 -0.12 0.12 c0 0.04 0 0.08 0.08 0.08 z M9.24 15.64 l0.16 -0.16 c0.12 -0.12 0.16 -0.24 0.16 -0.24 c-0.08 0 -0.12 0.08 -0.2 0.2 z M8.12 16.04 l0.08 -0.04 l-0.08 -0.04 c-0.04 0 -0.04 0 -0.04 0.04 z M24.48 16.36 l0.28 -0.04 l-0.2 -0.12 l-0.16 -0.04 c-0.08 0 -0.12 0 -0.12 0.08 l0.04 0.08 c0.04 0.04 0.08 0.04 0.16 0.04 z M24.08 16.32 l-0.04 -0.04 c0 -0.04 -0.04 -0.04 -0.08 -0.04 c0 0 -0.04 0 -0.04 0.04 l0 0.04 l0.16 0 z M22.96 16.44 c0.04 0 0.04 -0.04 0.04 -0.04 l0 -0.04 l-0.12 0 l0 0.04 z M21.92 16.72 l0.24 -0.12 l0.08 -0.12 l-0.04 -0.04 c-0.2 0 -0.4 0.12 -0.4 0.2 c0 0.04 0.04 0.08 0.12 0.08 z M22.84 16.88 c0.04 0 0.08 -0.04 0.12 -0.08 l0.08 -0.08 c0 -0.04 -0.04 -0.08 -0.12 -0.12 c-0.04 -0.04 -0.12 -0.04 -0.16 -0.04 l-0.16 0.08 c-0.04 0.04 -0.08 0.04 -0.08 0.08 l0.16 -0.04 c0.08 0 0.12 0.04 0.12 0.12 z M23.6 17 c0.08 0 0.12 -0.04 0.16 -0.08 c0 -0.04 -0.04 -0.08 -0.12 -0.08 s-0.12 0.04 -0.12 0.04 l0 0.04 c0 0.04 0.04 0.08 0.08 0.08 z M22.6 17 c0.08 0 0.12 0 0.12 -0.04 l-0.08 -0.04 c-0.04 0 -0.08 0 -0.12 0.04 l-0.04 0.04 l0.12 0 z M24.64 17.36 c0.04 0 0.12 -0.04 0.2 -0.12 l0.08 -0.16 l0 -0.04 c-0.12 0 -0.28 0.24 -0.28 0.32 z M22.24 17.36 c0.04 0 0.08 0 0.08 -0.04 l0.08 -0.12 l-0.04 -0.04 l-0.08 -0.04 c-0.08 0 -0.12 0.08 -0.12 0.16 l0 0.04 z M20.36 18.12 l0.2 -0.08 c0.12 -0.08 0.2 -0.16 0.2 -0.2 l-0.08 -0.12 c0 -0.04 0.04 -0.04 0.12 -0.04 s0.28 -0.08 0.36 -0.24 c0.12 -0.12 0.16 -0.2 0.16 -0.24 l-0.04 -0.04 c-0.04 0 -0.12 0.04 -0.24 0.16 c-0.08 0.12 -0.28 0.24 -0.36 0.24 c-0.12 0 -0.2 0.08 -0.2 0.16 c0 0.04 -0.04 0.12 -0.16 0.12 c-0.08 0 -0.16 0 -0.16 0.08 c0.04 0.04 0.08 0.08 0.12 0.08 c0.08 0 0.08 0.04 0.08 0.08 l0 0.04 z M21.76 17.68 l0 -0.04 l-0.08 -0.04 l-0.08 0.04 c0 0.04 0.04 0.04 0.08 0.04 l0.08 0 z M19.64 17.88 l0.08 -0.08 l0 -0.08 c0 -0.04 0 -0.04 -0.04 -0.04 c-0.08 0 -0.12 0.04 -0.12 0.12 c0.04 0.04 0.04 0.08 0.08 0.08 z M22.28 18.2 c0.04 0 0.12 -0.04 0.16 -0.12 c0.08 -0.12 0.24 -0.2 0.32 -0.2 s0.08 0 0.08 -0.04 l-0.04 0 c0 -0.04 -0.04 -0.04 -0.08 -0.04 c-0.16 0.04 -0.44 0.2 -0.44 0.36 l0 0.04 z M20 18.08 l0.08 -0.04 l0 -0.04 c0 -0.08 -0.04 -0.12 -0.08 -0.12 s-0.08 0.04 -0.08 0.08 l0 0.04 c0 0.04 0.04 0.08 0.08 0.08 z M9.8 18.92 l-0.04 -0.04 l-0.08 -0.16 l0.04 -0.16 c0 -0.12 0 -0.28 -0.04 -0.36 l0 -0.04 c0 -0.12 0.12 -0.24 0.24 -0.24 l0.08 0 c0.04 0.04 0.08 0.08 0.08 0.16 c0 0.12 -0.08 0.28 -0.16 0.36 c-0.04 0.04 -0.08 0.2 -0.08 0.32 s0 0.16 -0.04 0.16 z M22.08 18.2 c0.04 0 0.08 -0.04 0.08 -0.08 l-0.16 -0.12 l-0.04 0.08 c0 0.04 0.04 0.12 0.12 0.12 z M20.96 18.28 c0.08 0 0.16 -0.08 0.16 -0.16 l0 -0.08 c-0.04 0 -0.08 0 -0.12 0.04 c-0.12 0.08 -0.2 0.12 -0.2 0.16 z M8.56 18.52 c0.04 0 0.08 -0.04 0.16 -0.16 c0.08 -0.08 0.08 -0.16 0.08 -0.2 s0 -0.08 -0.04 -0.08 l-0.04 0 c-0.12 0.04 -0.2 0.2 -0.2 0.4 z M20.04 18.44 l-0.08 -0.08 c-0.08 -0.04 -0.2 -0.08 -0.28 -0.08 s-0.12 0 -0.12 0.08 c0 0.04 0.16 0.08 0.28 0.08 l0.2 0 z M19.08 18.36 l-0.04 -0.04 c0 -0.04 -0.04 -0.04 -0.08 -0.04 c0 0 -0.04 0 -0.04 0.04 l0 0.04 l0.16 0 z M20.28 18.48 l0.08 -0.04 l-0.04 -0.04 l-0.08 -0.04 l-0.04 0.08 z M22.12 18.48 l0.08 -0.04 l-0.04 -0.04 l-0.08 -0.04 l-0.04 0.08 z M20.4 18.64 c0.12 0 0.24 0 0.32 -0.04 s0.12 -0.12 0.12 -0.16 s0 -0.04 -0.04 -0.04 l-0.48 0.24 l0.08 0 z M21.44 18.76 l0.08 -0.08 l0 -0.12 c-0.04 0 -0.08 0.04 -0.12 0.12 c0 0.04 0 0.08 0.04 0.08 z M19.16 18.84 c0.04 0 0.08 -0.04 0.08 -0.08 c0 -0.08 0.04 -0.08 0.08 -0.08 l0.08 0.04 l0.2 -0.12 c0 -0.04 -0.08 -0.04 -0.16 -0.04 c-0.12 0 -0.24 0.08 -0.28 0.16 l-0.04 0.08 c0 0.04 0 0.04 0.04 0.04 z M21.72 18.88 c0.04 0 0.04 -0.08 0.08 -0.16 l0 -0.12 l-0.04 0 l-0.08 0.16 z M7.12 18.84 l0 -0.04 l-0.08 -0.08 l-0.08 -0.04 l-0.04 0.08 c0.04 0.04 0.08 0.08 0.12 0.08 l0.08 0 z M18.96 18.96 l0 -0.12 c0 -0.04 -0.04 -0.08 -0.12 -0.08 l-0.04 0.04 l0.04 0.04 c0.04 0.08 0.08 0.12 0.12 0.12 z M22.92 18.84 l0 -0.04 l-0.08 -0.04 c-0.04 0 -0.04 0 -0.04 0.04 l0 0.04 l0.12 0 z M19.8 19.04 c0.04 0 0.08 -0.04 0.08 -0.08 c-0.04 -0.08 -0.04 -0.12 -0.08 -0.12 l-0.08 0.16 z M21.44 19.04 l0.08 -0.04 l-0.04 0 c0 -0.04 -0.04 -0.04 -0.08 -0.04 c0 0 -0.04 0 -0.04 0.04 z M8.44 19.2 l-0.04 -0.16 c0 -0.04 0 -0.04 -0.04 -0.04 l0 0.08 c0 0.08 0.04 0.12 0.04 0.12 l0.04 0 z M9.56 19.84 c-0.08 0 -0.12 -0.08 -0.16 -0.12 l-0.04 -0.12 c0 -0.2 0.16 -0.56 0.24 -0.56 c0.04 0 0.08 0.04 0.08 0.08 l-0.12 0.4 l0.04 0.24 c0 0.04 0 0.08 -0.04 0.08 z M19.32 19.4 c0.12 0 0.2 -0.08 0.2 -0.12 l0 -0.04 c0 -0.04 -0.08 -0.08 -0.2 -0.08 s-0.2 0.04 -0.2 0.08 l0.08 0.12 z M18.64 19.24 l0.08 -0.04 l0 -0.04 l-0.16 0 c0 0.04 0.04 0.08 0.08 0.08 z M19.92 20.2 c0.08 0 0.16 -0.08 0.16 -0.24 c0.04 -0.12 0.08 -0.2 0.16 -0.2 l0.04 0 c0.04 0 0.16 -0.12 0.24 -0.24 l0.12 -0.24 c0 -0.04 0 -0.04 -0.04 -0.04 c-0.08 0 -0.6 0.44 -0.6 0.52 l0 0.04 l-0.08 0.2 l-0.12 0.16 c0 0.04 0.04 0.04 0.12 0.04 z M6.76 19.52 l0.16 -0.08 l0 -0.08 c0 -0.04 0 -0.08 -0.04 -0.08 c0 0 -0.08 0.04 -0.12 0.12 l-0.04 0.08 c0 0.04 0 0.04 0.04 0.04 z M8.2 20.28 l0.08 -0.04 c0.08 -0.04 0.12 -0.16 0.12 -0.28 l0 -0.08 c0 -0.12 0.04 -0.2 0.08 -0.24 l0.04 -0.08 c0 -0.04 -0.04 -0.08 -0.12 -0.12 c-0.04 -0.04 -0.08 -0.04 -0.12 -0.04 s-0.04 0.04 -0.04 0.08 c0 0.08 -0.04 0.16 -0.12 0.16 l-0.04 0.04 l0.08 0.08 c0.08 0.08 0.12 0.12 0.12 0.2 l-0.16 0.24 z M21.96 19.52 l0 -0.04 c0 -0.04 -0.04 -0.04 -0.08 -0.04 l-0.16 0.04 c0 0.04 0.04 0.04 0.12 0.04 l0.12 0 z M16.76 21.28 c0.08 0 0.24 -0.04 0.44 -0.2 c0.16 -0.16 0.28 -0.24 0.32 -0.24 l0 0.08 c0 0.04 0 0.08 0.04 0.08 c0.08 0 0.12 -0.04 0.12 -0.12 s0.12 -0.16 0.28 -0.24 c0.32 -0.16 0.72 -0.6 0.72 -0.76 l0 -0.04 c-0.04 0 -0.12 0.04 -0.16 0.12 s-0.12 0.16 -0.16 0.16 c-0.08 0 -0.28 0.12 -0.44 0.28 s-0.36 0.28 -0.44 0.28 c-0.12 0 -0.6 0.28 -0.84 0.48 l0.08 0.12 l0.04 0 z M19.28 20.2 c0.08 0 0.12 -0.04 0.16 -0.08 c0 -0.04 0.04 -0.08 0.08 -0.08 l0.12 0.04 l0 -0.04 c-0.04 -0.04 -0.08 -0.04 -0.12 -0.04 l-0.08 0 c-0.12 0 -0.24 0.04 -0.24 0.08 l0 0.04 c0 0.04 0.04 0.08 0.08 0.08 z M19.56 20.4 c0.04 0 0.08 -0.04 0.08 -0.08 l0.04 -0.08 l-0.04 -0.04 l-0.12 0.16 z M20.6 20.4 l0.12 -0.04 c0.04 -0.04 0.08 -0.08 0.08 -0.12 c0 0 0 -0.04 -0.04 -0.04 s-0.08 0.04 -0.12 0.08 z M17 20.4 l0.08 -0.04 l-0.04 -0.04 l-0.12 0 l0 0.04 z M16.76 20.6 c0.04 0 0.08 -0.04 0.08 -0.08 c-0.04 -0.08 -0.08 -0.12 -0.12 -0.12 c-0.08 0 -0.08 0.04 -0.08 0.12 c0 0.04 0.04 0.08 0.12 0.08 z M8.28 20.8 c0.08 0 0.12 -0.04 0.12 -0.04 l0 -0.04 l-0.2 0 l-0.04 0.04 z M6.88 21 l0.08 -0.12 c0 -0.04 0 -0.08 -0.08 -0.08 c-0.04 0 -0.08 0.04 -0.08 0.08 c0 0.08 0.04 0.12 0.08 0.12 z M6.6 20.96 c0 -0.04 0 -0.12 -0.04 -0.12 c0 -0.04 0 -0.04 -0.04 -0.04 l0 0.08 l0.04 0.08 l0.04 0 z M7.96 21.08 l0.08 -0.08 c0 -0.08 0 -0.12 -0.08 -0.12 c-0.04 0 -0.08 0.04 -0.08 0.12 c0 0.04 0.04 0.08 0.08 0.08 z M17.84 21.28 l0.36 -0.12 c0.12 -0.04 0.24 -0.08 0.24 -0.16 c0 -0.04 -0.04 -0.08 -0.08 -0.08 c-0.12 0 -0.4 0.08 -0.52 0.2 l-0.08 0.12 z M7.96 21.36 c0.04 0 0.08 0 0.08 -0.04 l-0.12 -0.08 l-0.08 -0.04 l0 0.08 c0 0.04 0.04 0.08 0.12 0.08 z M17.92 21.56 c0.08 0 0.12 -0.04 0.12 -0.04 l0 -0.04 c0 -0.04 0 -0.04 -0.04 -0.04 l-0.04 -0.04 l-0.2 0.12 c0 0.04 0.08 0.04 0.16 0.04 z M7.84 21.8 c0.04 -0.08 0.04 -0.16 0.04 -0.24 l-0.04 -0.04 c-0.04 0 -0.04 0.04 -0.08 0.12 c0 0.12 0.04 0.16 0.04 0.16 l0.04 0 z M14.64 21.76 c0.08 0 0.16 0 0.16 -0.04 c0 -0.08 -0.12 -0.12 -0.2 -0.12 l-0.04 0.08 l0 0.04 z M16 21.96 l0.08 -0.04 l-0.04 -0.04 l-0.12 0 l0 0.04 z M17.52 22.04 l0.04 -0.08 l-0.04 -0.08 l-0.04 0 c-0.04 0 -0.04 0.04 -0.04 0.08 c0.04 0.08 0.04 0.08 0.08 0.08 z M14.44 22.16 l0.08 -0.12 c0 -0.04 0 -0.08 -0.08 -0.08 c-0.04 0 -0.08 0.04 -0.08 0.08 c0 0.08 0.04 0.12 0.08 0.12 z M11.8 22.04 l-0.12 0 c-0.08 0 -0.08 0 -0.08 -0.04 l0.04 0 c0 -0.04 0.04 -0.04 0.08 -0.04 s0.08 0 0.08 0.04 l0 0.04 z M14.12 22.32 c0.04 0 0.04 0 0.04 -0.04 l0 -0.12 c-0.04 -0.12 -0.04 -0.2 -0.08 -0.2 s-0.08 0.04 -0.16 0.12 l-0.04 0.12 c0 0.04 0 0.04 0.08 0.08 z M16.76 22.32 c0.04 0 0.04 0 0.04 -0.04 l-0.12 -0.28 c0 -0.04 0 -0.04 -0.04 -0.04 l-0.04 0.04 l-0.04 0.08 c0 0.12 0.12 0.24 0.2 0.24 z M15.04 22.36 c0.12 0 0.32 -0.08 0.48 -0.16 c0.16 -0.12 0.28 -0.16 0.28 -0.2 l-0.4 0.12 c-0.24 0.08 -0.4 0.16 -0.4 0.2 z M13.52 22.16 l0.08 -0.04 l-0.04 -0.04 l-0.08 -0.04 l-0.04 0.08 z M16.32 22.36 c0.04 0 0.08 -0.04 0.08 -0.08 l0 -0.04 c-0.04 -0.04 -0.12 -0.08 -0.2 -0.08 c-0.04 0 -0.04 0 -0.04 0.04 l0 0.04 c0 0.04 0.08 0.12 0.16 0.12 z M17.48 22.36 l0.08 -0.12 c0 -0.04 -0.04 -0.08 -0.12 -0.08 l-0.08 0.04 l0 0.04 c0.04 0.04 0.08 0.12 0.12 0.12 z M7.72 22.24 l0.04 -0.04 l0 -0.04 l-0.12 0 l0 0.04 z M7.32 22.32 l0.04 -0.08 c0 -0.04 -0.08 -0.08 -0.2 -0.08 l-0.2 0 c0 0.04 0.04 0.04 0.12 0.08 z M7.72 22.52 l0 -0.04 l-0.04 -0.12 c-0.04 0 -0.04 0.04 -0.04 0.08 c0 0.08 0.04 0.08 0.08 0.08 z M15.6 23.12 c0.04 0 0.08 -0.04 0.08 -0.12 c0 -0.04 0.04 -0.08 0.12 -0.08 s0.2 -0.12 0.32 -0.24 l0.16 -0.2 c0 -0.04 -0.08 -0.04 -0.2 -0.04 c-0.08 0 -0.16 0 -0.16 0.04 l0.08 0.04 c0.08 0.04 0.08 0.04 0.08 0.08 l-0.08 0.08 c-0.04 0.04 -0.2 0.08 -0.28 0.08 c-0.12 0 -0.2 0.08 -0.2 0.2 c0 0.08 0.04 0.16 0.08 0.16 z M14.64 22.8 c0.08 0 0.12 -0.04 0.12 -0.08 s-0.04 -0.08 -0.08 -0.08 c-0.08 0 -0.12 0.04 -0.16 0.08 c0 0.04 0.04 0.08 0.12 0.08 z M16.16 22.96 l0.2 -0.04 c0.08 -0.04 0.16 -0.12 0.16 -0.16 l-0.04 0 l-0.16 0.08 z M12.28 22.96 c0.08 -0.04 0.16 -0.08 0.16 -0.12 l0 -0.04 s0 -0.04 -0.04 -0.04 s-0.08 0.04 -0.12 0.08 c-0.12 0.04 -0.2 0.12 -0.2 0.12 l0.2 0 z M14.16 23.12 c0.04 0 0.08 -0.04 0.08 -0.12 c0 -0.04 -0.08 -0.08 -0.12 -0.08 s-0.08 0.04 -0.08 0.08 c0 0.08 0.08 0.12 0.12 0.12 z M7.32 23.4 c0.04 0 0.12 -0.08 0.2 -0.2 c0.08 -0.08 0.12 -0.2 0.12 -0.2 l-0.2 0.2 z M12.04 23.6 l0.28 -0.12 c0.12 -0.04 0.2 -0.2 0.2 -0.32 c0 -0.08 -0.04 -0.12 -0.04 -0.12 c-0.04 0 -0.04 0.04 -0.08 0.08 l-0.24 0.32 c-0.08 0.08 -0.12 0.12 -0.12 0.16 z M15.24 23.32 l0.08 -0.04 l0 -0.04 l-0.08 -0.04 l-0.08 0.04 c0 0.04 0.04 0.08 0.08 0.08 z M14.88 23.44 l0.2 -0.08 c0 -0.04 -0.08 -0.04 -0.16 -0.04 s-0.12 0.04 -0.12 0.04 l0 0.04 c0 0.04 0.04 0.04 0.08 0.04 z M7.32 23.68 c0.08 0 0.12 -0.04 0.12 -0.08 s-0.04 -0.08 -0.12 -0.08 c-0.04 0 -0.08 0.04 -0.12 0.08 c0 0.04 0.04 0.08 0.12 0.08 z M14.6 23.68 c0.08 0 0.12 0 0.12 -0.04 l-0.12 -0.04 l-0.08 0.04 l-0.04 0.04 l0.12 0 z M12.72 24 c0.08 0 0.16 -0.08 0.24 -0.16 l0.12 -0.12 l-0.12 0 l-0.24 0.08 c-0.08 0 -0.08 0.04 -0.08 0.08 c0 0.08 0.04 0.12 0.08 0.12 z M11.64 23.88 l0 -0.04 l-0.08 -0.04 l-0.08 0.04 c0 0.04 0 0.04 0.08 0.04 l0.08 0 z M14.36 24.08 l-0.04 -0.16 c-0.04 -0.04 -0.08 -0.08 -0.12 -0.08 l-0.04 0 l-0.04 0.08 l0.08 0.08 z M13.36 24 c0.08 0 0.12 -0.04 0.12 -0.04 l0 -0.04 l-0.16 0 l-0.04 0.04 z M12.24 24.08 c0.08 0 0.12 0 0.12 -0.04 l-0.24 -0.08 l-0.16 0 c-0.04 0 -0.04 0 -0.04 0.04 c0.04 0.04 0.2 0.08 0.32 0.08 z M10.08 24.28 c0.04 0 0.08 -0.04 0.08 -0.08 l-0.04 -0.12 c-0.04 0 -0.08 0.04 -0.12 0.12 c0 0.04 0 0.08 0.08 0.08 z M15.88 24.36 c-0.04 0 -0.08 -0.04 -0.08 -0.08 s0.04 -0.08 0.08 -0.08 c0.08 0 0.08 0.04 0.08 0.08 z M7.08 24.439999999999998 l0.2 -0.08 l0.08 -0.08 l-0.16 0 c-0.12 0 -0.2 0.04 -0.2 0.08 s0.04 0.08 0.08 0.08 z M11.88 24.560000000000002 c0.08 0 0.24 -0.04 0.32 -0.12 l0.08 -0.12 c0 -0.04 0 -0.04 -0.04 -0.04 s-0.16 0.04 -0.28 0.16 l-0.12 0.08 c0 0.04 0 0.04 0.04 0.04 z M11.28 24.880000000000003 c0.04 0 0.08 -0.08 0.08 -0.12 l0 -0.04 c0 -0.04 0 -0.04 -0.04 -0.04 c-0.08 0 -0.08 0.04 -0.08 0.08 z M12.4 24.84 l-0.04 -0.04 c0 -0.04 -0.04 -0.04 -0.08 -0.04 c0 0 -0.04 0 -0.04 0.04 l0 0.04 l0.16 0 z M12.12 25.04 l0 -0.04 l-0.04 -0.12 c-0.04 0 -0.04 0.04 -0.04 0.08 c0 0.08 0.04 0.08 0.08 0.08 z M6.84 25.72 c0.04 0 0.12 -0.04 0.2 -0.12 s0.16 -0.16 0.2 -0.16 c0.08 0 0.12 -0.04 0.12 -0.12 l0 -0.04 l0.16 0.04 l-0.2 -0.16 c-0.04 0 -0.04 0 -0.08 0.08 c0 0.04 -0.08 0.12 -0.12 0.12 c-0.08 0 -0.2 0.08 -0.28 0.16 l-0.08 0.16 c0 0.04 0.04 0.04 0.08 0.04 z M6.84 25.32 c0 -0.04 0 -0.12 -0.04 -0.12 c0 -0.04 0 -0.04 -0.04 -0.04 l0 0.08 l0.04 0.08 l0.04 0 z M4.88 25.8 c0 -0.04 0 -0.08 -0.04 -0.12 c0 -0.04 0 -0.04 -0.04 -0.04 l0 0.08 l0.04 0.08 l0.04 0 z M5.28 26 l0.04 -0.08 l-0.08 -0.08 c-0.04 0 -0.04 0.04 -0.04 0.08 l0.04 0.08 l0.04 0 z M6.72 26.4 l0 -0.04 l-0.08 -0.04 l-0.08 0.04 c0 0.04 0.04 0.04 0.08 0.04 l0.08 0 z M6.52 27.04 c0.08 -0.04 0.12 -0.08 0.12 -0.12 l-0.16 -0.04 c-0.08 0 -0.12 0.04 -0.12 0.12 c0 0.04 0.08 0.04 0.16 0.04 z M6.08 27.2 c0.08 0 0.12 -0.04 0.12 -0.12 c-0.04 -0.04 -0.04 -0.08 -0.08 -0.08 s-0.04 0.04 -0.08 0.08 l0 0.04 c0 0.04 0 0.08 0.04 0.08 z M6.48 27.68 c0.04 0 0.08 -0.08 0.08 -0.16 c-0.04 -0.08 -0.04 -0.12 -0.08 -0.12 l-0.08 0.12 c0 0.08 0.04 0.16 0.08 0.16 z M5.88 27.84 l0.04 -0.08 l-0.08 -0.08 c-0.04 0 -0.04 0.04 -0.04 0.08 l0.04 0.08 l0.04 0 z M7.16 28.2 l0.08 -0.04 c0.04 -0.08 0.04 -0.2 0.04 -0.28 s-0.04 -0.12 -0.12 -0.12 l-0.12 0.16 l0 0.08 c0 0.12 0.08 0.2 0.12 0.2 z M6.12 28.52 l0.4 -0.08 l0.16 -0.08 l-0.24 0 c-0.2 0 -0.36 0.04 -0.36 0.08 l-0.04 0.04 c0 0.04 0.04 0.04 0.08 0.04 z M7.04 28.84 c0.04 0 0.12 -0.08 0.12 -0.16 l0.04 -0.2 l-0.04 -0.08 l-0.04 0 l-0.08 0.04 c-0.04 0.08 -0.08 0.16 -0.08 0.24 s0.04 0.16 0.08 0.16 z M6.08 28.84 l0.08 -0.04 l-0.04 -0.04 l-0.12 0 l0 0.04 z M7 29.16 c0.08 -0.04 0.16 -0.08 0.16 -0.12 l0 -0.04 l-0.04 -0.08 l-0.16 0.08 c-0.12 0.04 -0.16 0.08 -0.16 0.12 s0.04 0.04 0.12 0.04 l0.08 0 z M5.56 29.759999999999998 l0.08 -0.16 c0 -0.04 -0.04 -0.04 -0.04 -0.04 l-0.08 0 l-0.08 0.16 l0.08 0.04 l0.04 0 z M5.48 30.08 l0.08 -0.08 c0 -0.04 0 -0.08 -0.08 -0.08 c-0.04 0 -0.08 0.04 -0.08 0.08 s0.04 0.08 0.08 0.08 z M5.88 30.240000000000002 l0.08 -0.04 l0.04 -0.08 l-0.12 -0.16 c-0.04 0 -0.04 0.04 -0.04 0.16 c0 0.08 0 0.12 0.04 0.12 z M7 30.6 c-0.08 0 -0.12 -0.04 -0.12 -0.12 c0.04 -0.04 0.08 -0.08 0.16 -0.08 c0.04 0 0.08 0.04 0.08 0.08 l0 0.04 c0 0.04 -0.04 0.08 -0.12 0.08 z M5.72 30.96 l0 -0.04 l-0.08 -0.04 s-0.04 0 -0.04 0.04 l0 0.04 l0.12 0 z M5.24 31.16 c0.04 0 0.08 -0.04 0.08 -0.08 l0.04 -0.08 l-0.04 -0.04 l-0.12 0.16 z M5.68 31.439999999999998 c0.08 0 0.16 -0.04 0.16 -0.08 c-0.04 -0.04 -0.12 -0.08 -0.2 -0.08 s-0.12 0.04 -0.12 0.08 s0.08 0.08 0.16 0.08 z M5.68 31.759999999999998 l0.12 -0.04 l-0.12 -0.12 l-0.08 0 l-0.04 0.04 z M6.48 32.72 l-0.16 -0.04 c0 -0.16 0.24 -0.64 0.36 -0.64 c0.08 0 0.12 0.04 0.12 0.08 c-0.16 0.44 -0.24 0.6 -0.32 0.6 z M5.44 32.88 l0.08 -0.04 c0.04 -0.04 0.08 -0.08 0.08 -0.12 l-0.08 -0.32 l-0.04 -0.04 s-0.08 0.04 -0.12 0.12 l-0.08 0.12 c0 0.04 0 0.08 0.04 0.08 c0.08 0.04 0.12 0.08 0.12 0.16 l0 0.04 z M6.32 34.16 c-0.08 0 -0.12 -0.04 -0.16 -0.08 c0 -0.04 0.04 -0.2 0.12 -0.36 l0.04 -0.4 l0 -0.16 c0 -0.2 0.04 -0.32 0.08 -0.32 s0.08 0.04 0.12 0.12 c0.04 0.04 0.04 0.16 0.04 0.28 c0 0.36 -0.12 0.92 -0.24 0.92 z M5.4 33.64 l0 -0.04 l-0.04 -0.08 c-0.04 0 -0.04 0 -0.04 0.08 l0.04 0.04 l0.04 0 z M5.24 33.84 l0 -0.04 l-0.04 -0.08 l-0.04 0 l0 0.08 l0.04 0.04 l0.04 0 z M6.2 34.92 c-0.04 0 -0.04 -0.08 -0.04 -0.2 c0 -0.08 0.04 -0.12 0.04 -0.12 c0.04 0 0.04 0 0.04 0.04 l0.04 0.12 z M5.12 35.04 c0.08 0 0.12 -0.04 0.12 -0.04 l-0.08 -0.04 l-0.12 0 l-0.04 0.04 c0 0.04 0.04 0.04 0.12 0.04 z M5.08 37.36 l0.08 -0.08 l-0.04 -0.08 l-0.04 0 c-0.04 0 -0.04 0.04 -0.04 0.08 z M5.68 38.04 c0.04 0 0.08 -0.04 0.08 -0.16 l0.04 -0.2 c0 -0.16 -0.08 -0.32 -0.16 -0.32 c-0.04 0 -0.08 0.04 -0.08 0.2 l0 0.24 c0.04 0.16 0.08 0.24 0.12 0.24 z M43.518 46 c-0.16 0 -0.32 0 -0.4 -0.04 c-0.12 -0.04 -0.2 -0.12 -0.2 -0.16 l-0.04 -0.04 l-0.08 0.04 l-0.44 -0.08 c-0.2 -0.08 -0.4 -0.12 -0.44 -0.12 c-0.24 0 -0.64 -0.44 -0.96 -1 c-0.12 -0.16 -0.16 -0.64 -0.16 -1.04 l0.04 -0.44 l0.04 -0.4 c0 -0.12 0.04 -0.48 0.12 -0.8 s0.12 -0.72 0.16 -0.88 c0 -0.16 0.04 -0.28 0.08 -0.28 l0.04 0 c0.04 0 0.08 -0.12 0.08 -0.24 l-0.04 -0.2 l0.04 -0.08 l0.08 -0.04 l-0.08 -0.04 l-0.04 -0.16 c0 -0.24 0.08 -0.64 0.16 -0.64 c0.04 0 0.04 -0.12 0.04 -0.28 c0 -0.24 0.04 -0.4 0.08 -0.44 c0.12 -0.12 0.2 -0.6 0.2 -1 l0 -0.16 c0 -0.12 0.04 -0.2 0.08 -0.2 s0.04 -0.08 0.04 -0.16 s0 -0.08 -0.04 -0.08 l-0.08 0.12 c-0.04 0 -0.04 0 -0.04 -0.08 s0 -0.2 0.04 -0.28 c0.08 -0.32 0.12 -0.44 0.12 -0.56 l0 -0.08 c0 -0.08 0 -0.16 0.04 -0.16 c0.04 -0.04 0.08 -0.12 0.08 -0.2 s0.04 -0.16 0.08 -0.16 c0.08 0 0.12 -0.04 0.12 -0.08 s-0.04 -0.08 -0.08 -0.12 l-0.04 -0.08 l0.04 -0.08 c0.08 -0.04 0.12 -0.24 0.12 -0.4 l0.04 -0.56 c0 -0.04 0 -0.08 -0.04 -0.08 l-0.04 -0.08 l0.08 -0.64 l0.08 -0.16 l0 -0.08 c0 -0.04 0 -0.04 0.04 -0.04 c0.04 -0.04 0.08 -0.16 0.08 -0.36 c0 -0.8 0 -1.04 0.08 -1.12 c0.04 -0.08 0.04 -0.36 0.04 -0.64 s0.04 -0.64 0.08 -0.76 c0.16 -0.36 0.16 -0.68 0.16 -1.44 l0.04 -0.2 c0.04 0 0.04 -0.08 0.04 -0.2 l-0.04 -0.24 c0 -0.24 0.08 -0.6 0.16 -0.72 c0.04 -0.04 0.08 -0.28 0.08 -0.48 s0.04 -0.4 0.08 -0.44 c0.04 -0.08 0.08 -0.16 0.08 -0.24 s-0.04 -0.16 -0.12 -0.24 c-0.04 -0.04 -0.08 -0.04 -0.08 -0.08 l0.04 0 c0.04 0 0.08 -0.08 0.08 -0.12 s-0.08 -0.08 -0.28 -0.08 l-0.28 0 c-0.76 0.08 -1 0.12 -1 0.16 l0 0.04 c0.04 0.04 0.12 0.08 0.36 0.08 l0.76 0 c0 0.04 -0.04 0.04 -0.16 0.08 l-0.72 0.04 c-0.4 0 -0.92 0.12 -1.08 0.28 l-0.08 0.04 l-0.12 -0.04 l-0.44 0.08 l-0.12 -0.04 c-0.04 -0.04 -0.16 -0.04 -0.32 -0.04 c-0.4 0 -1.08 0.08 -1.16 0.16 s-0.24 0.12 -0.4 0.12 c-0.12 0 -0.2 0 -0.2 -0.04 l0.04 -0.04 l0.04 -0.08 l-0.12 0.04 c-0.08 0.04 -0.24 0.04 -0.36 0.04 c-0.08 0 -0.16 0.04 -0.2 0.08 c0 0.04 -0.08 0.08 -0.16 0.08 l-0.08 0 l0.04 -0.08 l0.04 -0.04 l-0.08 -0.04 l-0.28 0.04 c-0.28 0.04 -0.48 0.08 -0.52 0.12 c0 0.04 -0.2 0.04 -0.36 0.04 l-1.96 0.16 c-0.36 0 -0.72 0.04 -0.8 0.08 c-0.12 0.04 -0.16 0.08 -0.16 0.12 s0.04 0.08 0.12 0.08 s0.12 0.08 0.12 0.44 c0 0.32 -0.04 0.52 -0.08 0.52 s-0.08 -0.04 -0.08 -0.2 l-0.04 -0.2 l-0.08 0.16 l0.04 0.16 c0 0.08 0 0.24 -0.04 0.32 c-0.04 0.12 -0.08 0.24 -0.08 0.36 l-0.04 0.48 c0 0.04 0 0.12 0.04 0.12 s0.08 -0.08 0.08 -0.12 l0 -0.12 c0 -0.32 0.08 -0.8 0.16 -0.8 c0.04 0 0.04 0.04 0.04 0.08 l0 0.08 c-0.04 0.08 -0.04 0.2 -0.04 0.28 l-0.04 0.44 c0 0.24 -0.04 0.28 -0.16 0.28 c-0.08 0 -0.12 0.04 -0.16 0.12 l0 0.12 c0.04 0 0.08 -0.04 0.12 -0.08 l0.08 -0.04 l0.04 0.04 l-0.04 0.2 c0 0.16 0 0.36 -0.04 0.44 c0 0.24 -0.2 1.64 -0.24 1.64 l0 -0.08 l0.12 -1.4 l0.04 -0.16 l-0.04 0 l-0.08 0.08 c-0.04 0.08 -0.12 0.32 -0.12 0.52 c0 0.24 -0.04 0.4 -0.08 0.4 l-0.04 0.04 l0.04 0.08 l0.04 0.16 l-0.04 0.24 c0 0.16 0 0.2 -0.04 0.2 l-0.08 -0.12 l-0.04 0.04 l0.04 0.16 c0.04 0.08 0.04 0.16 0.04 0.24 c0 0.04 0 0.12 -0.08 0.16 l-0.08 0.08 l0.04 0.04 c0.08 0 0.12 0.12 0.12 0.36 l-0.08 0.64 c-0.04 0.2 -0.08 0.44 -0.08 0.6 l0 0.12 c0 0.12 -0.04 0.28 -0.08 0.32 l-0.04 0.28 c0 0.16 -0.04 0.24 -0.08 0.24 l-0.04 0 c-0.08 0 -0.16 0.12 -0.16 0.24 l0.12 0.04 c0.04 0 0.08 0.04 0.08 0.16 l-0.04 0.32 c-0.04 0.28 -0.04 0.56 -0.04 0.64 c0 0.24 -0.08 0.72 -0.16 0.72 l-0.04 0.04 l0.08 0.08 c0.04 0.08 0.08 0.12 0.08 0.2 l-0.04 0.32 l0.04 0.08 c0.08 0.08 0.12 0.16 0.12 0.2 s0 0.04 -0.04 0.04 l-0.08 0 s-0.04 0.04 -0.04 0.16 l0.04 0.32 c0 0.12 0 0.2 -0.04 0.2 s-0.08 0.04 -0.08 0.08 l0.08 0.44 c0 0.2 -0.08 0.36 -0.2 0.36 c-0.04 0 -0.12 -0.08 -0.16 -0.2 c-0.04 -0.08 -0.16 -0.16 -0.24 -0.16 c-0.12 0 -0.24 -0.04 -0.28 -0.16 c-0.08 -0.08 -0.16 -0.12 -0.28 -0.12 l-0.28 0 c-0.12 0 -0.2 0 -0.24 -0.04 s-0.2 -0.2 -0.36 -0.28 c-0.48 -0.32 -0.84 -0.88 -0.92 -1.36 c-0.08 -0.24 -0.08 -0.72 -0.08 -1.24 c0 -0.44 0 -0.84 0.04 -1.16 c0.2 -1.32 0.24 -1.84 0.28 -2.36 l0.2 -1.48 c0 -0.16 0.04 -0.4 0.08 -0.6 c0.08 -0.16 0.08 -0.4 0.08 -0.52 s0 -0.32 0.04 -0.44 l0.08 -0.32 c0 -0.36 0.08 -0.8 0.16 -0.8 c0.04 0 0.04 -0.04 0.04 -0.08 l-0.08 -0.16 l-0.04 -0.16 l0.08 -0.76 l-0.04 -0.2 c-0.04 -0.08 -0.16 -0.08 -0.52 -0.08 l-0.24 0 c-0.28 0 -0.52 -0.04 -0.96 -0.16 c-0.44 -0.16 -0.68 -0.24 -0.84 -0.24 c-0.08 0 -0.16 0.04 -0.2 0.12 l-0.12 0.08 c-0.08 0 -0.12 -0.08 -0.12 -0.2 s-0.2 -0.32 -0.44 -0.52 c-0.28 -0.24 -0.4 -0.4 -0.52 -0.72 l-0.2 -0.44 c-0.04 0 -0.04 -0.08 -0.04 -0.12 l0 -0.12 c0 -0.12 -0.04 -0.24 -0.08 -0.28 c-0.08 -0.04 -0.08 -0.08 -0.08 -0.12 s0.04 -0.12 0.2 -0.2 c0.16 -0.04 0.76 -0.12 1.72 -0.16 c0.8 0 1.68 -0.04 1.96 -0.08 l0.72 0 c0.16 -0.04 0.2 -0.08 0.2 -0.32 c0 -0.16 0.08 -0.32 0.12 -0.36 l0.08 -0.04 l-0.08 0 c-0.04 0 -0.08 -0.04 -0.08 -0.08 l0.04 -0.2 c0.04 -0.12 0.08 -0.2 0.16 -0.2 l0.04 0 l-0.08 -0.2 l0.04 -0.08 c0.04 -0.04 0.08 -0.16 0.12 -0.32 c0 -0.12 0 -0.2 -0.04 -0.2 s-0.08 -0.04 -0.08 -0.12 c0 -0.28 0.12 -0.84 0.2 -0.84 l0.04 -0.04 l-0.04 -0.08 l-0.04 -0.24 c0 -0.28 0.08 -0.76 0.16 -0.92 c0.04 -0.04 0.04 -0.2 0.04 -0.4 l0 -0.16 l0.08 -0.8 c0 -0.12 0.04 -0.32 0.12 -0.48 s0.08 -0.24 0.08 -0.32 c0 -0.04 0 -0.04 -0.04 -0.04 l-0.04 -0.04 c0 -0.08 0.04 -0.12 0.12 -0.24 c0.08 -0.08 0.16 -0.2 0.16 -0.24 l-0.08 -0.36 l0 -0.44 c0 -0.4 0.04 -0.76 0.08 -0.76 c0.12 0 0.16 -0.24 0.16 -0.72 l0 -0.24 c0 -0.16 0.04 -0.28 0.08 -0.32 l0.08 -0.08 l-0.08 0 c-0.04 0 -0.04 -0.04 -0.04 -0.16 l0.08 -0.6 c0.08 -0.24 0.12 -0.48 0.12 -0.56 s0.04 -0.24 0.12 -0.36 l0.08 -0.2 l0 -0.04 c-0.04 0 -0.04 -0.16 -0.04 -0.32 c0 -0.36 0.04 -0.88 0.12 -1.16 c0.04 -0.12 0.08 -0.28 0.08 -0.4 l0 -0.48 c0.04 -0.16 0.04 -0.32 0.04 -0.36 l0.08 -0.2 c0.04 -0.08 0.08 -0.28 0.08 -0.4 l0.12 -2.04 l-0.08 -1.44 c-0.08 -0.72 -0.08 -1.36 -0.08 -1.4 c0.04 -0.08 0.12 -0.12 0.24 -0.12 c0.28 0 0.72 0.2 1.12 0.56 c0.2 0.16 0.4 0.32 0.48 0.32 c0.04 0 0.12 0.04 0.16 0.16 c0.04 0.08 0.16 0.2 0.2 0.24 c0.08 0.08 0.28 0.36 0.44 0.68 c0.32 0.52 0.32 0.52 0.4 1.84 l0.08 1.4 c-0.08 0.24 -0.16 0.8 -0.16 0.96 l-0.04 0.2 l-0.08 1 c0 0.04 0 0.08 0.04 0.08 s0.08 0.08 0.08 0.16 l0 0.08 c0 0.04 -0.04 0.08 -0.08 0.08 c-0.08 0 -0.12 0 -0.12 0.04 s0 0.16 -0.04 0.2 c0 0.08 0.04 0.12 0.08 0.12 s0.04 -0.04 0.04 -0.08 l0 -0.08 c0 -0.08 0.04 -0.12 0.04 -0.12 c0.04 0 0.04 0.08 0.04 0.2 c0 0.28 -0.08 0.72 -0.12 0.92 c-0.04 0.04 -0.04 0.08 -0.08 0.08 l-0.04 -0.2 l-0.04 0.12 l-0.04 0.24 c0 0.08 0 0.12 0.04 0.12 l0.08 -0.08 l0.04 0.08 l-0.08 0.16 c-0.12 0.08 -0.16 0.2 -0.16 0.44 l0 0.24 l0.16 -0.52 l0.04 0.16 c0 0.16 -0.04 0.32 -0.16 0.44 c-0.08 0.12 -0.16 0.28 -0.16 0.36 s-0.04 0.44 -0.16 0.76 l-0.04 0.2 l0 0.36 l-0.08 0.56 l-0.12 1 c0 0.16 -0.04 0.36 -0.08 0.4 s-0.04 0.08 -0.04 0.16 l0 0.08 c0 0.24 -0.16 1 -0.24 1.04 c-0.04 0.04 -0.04 0.12 -0.04 0.16 l-0.04 0.24 c-0.04 0.04 -0.08 0.08 -0.08 0.12 l0.12 0 l0.08 0.04 l-0.08 0.08 c-0.08 0.08 -0.12 0.12 -0.12 0.2 c0 0.04 0.04 0.08 0.08 0.08 c0.04 0.04 0.04 0.12 0.04 0.24 l-0.04 0.16 l-0.04 -0.16 c0 -0.08 0 -0.16 -0.04 -0.16 l-0.08 0.28 c0 0.12 0 0.16 0.08 0.16 c0.04 0 0.08 0.12 0.08 0.4 s0 0.44 0.04 0.44 l0 -0.04 l0.08 -0.08 l-0.04 0.28 l-0.04 0.08 l-0.04 -0.04 c0 -0.04 0 -0.08 -0.04 -0.08 l-0.08 0.2 l0.08 0.16 l0.08 0.08 l-0.04 0 l-0.08 -0.04 l-0.04 0.04 c0 0.04 -0.04 0.16 -0.16 0.24 l-0.08 0.12 l0.16 -0.04 l0 0.08 l-0.12 0.84 c-0.04 0.24 -0.08 0.44 -0.12 0.44 l-0.04 -0.04 l-0.04 0.08 c0.04 0.08 0.32 0.12 0.8 0.12 l0.52 0 c1.12 -0.08 1.28 -0.12 1.44 -0.2 l0.28 -0.04 l0.44 0.08 l3.72 -0.32 c0.16 -0.04 0.36 -0.04 0.4 -0.08 l0.04 0 l0.08 0.04 c0 0.04 -0.08 0.12 -0.16 0.16 l-0.12 0.08 l0.16 0 c0.08 0 0.2 -0.04 0.24 -0.12 c0 -0.08 0.08 -0.12 0.12 -0.12 l0.04 0 c0.08 0 0.2 -0.04 0.28 -0.08 s0.28 -0.08 0.4 -0.08 l0.88 -0.08 c0.64 -0.08 0.68 -0.08 0.68 -0.28 c0.04 -0.12 0.08 -0.28 0.16 -0.4 c0.04 -0.08 0.04 -0.24 0.04 -0.36 l-0.04 -0.12 l0.04 -0.08 c0.04 0 0.04 -0.04 0.04 -0.08 l0 -0.04 c0 -0.04 0 -0.04 -0.04 -0.04 l-0.08 0.04 l0.08 -0.8 c0.04 -0.4 0.12 -0.76 0.2 -0.8 l0.08 -0.16 l-0.04 -0.04 l-0.08 0.08 l-0.04 -0.08 l0.12 -0.4 c0.08 -0.12 0.08 -0.2 0.08 -0.24 c0 -0.08 0 -0.12 -0.04 -0.12 s-0.08 -0.08 -0.08 -0.12 l0.04 -0.08 l0.04 0 c0.04 0 0.04 0 0.04 -0.04 l-0.04 -0.4 c0 -0.16 0 -0.24 0.04 -0.24 l0.04 0 c0.04 0 0.04 -0.16 0.04 -0.36 l-0.04 -0.44 c0 -0.16 0.04 -0.24 0.08 -0.32 l0.04 -0.04 l-0.04 -0.04 c-0.04 0 -0.08 0 -0.08 -0.16 l0.2 -2.52 l0.04 0 c0.04 0 0.04 -0.08 0.04 -0.16 l0 -0.76 l0.04 -0.68 c0 -0.24 0.04 -0.6 0.08 -0.84 c0.04 -0.2 0.08 -0.6 0.08 -0.84 c0 -0.4 0.04 -0.68 0.16 -1.76 c0.04 -0.32 0.04 -0.68 0.08 -0.84 c0 -0.12 0 -0.76 0.04 -1.4 c0.04 -0.68 0.04 -1.52 0.04 -1.92 l-0.04 -1.64 c0 -0.44 0 -0.6 0.08 -0.72 c0.08 -0.16 0.12 -0.2 0.2 -0.2 s0.12 0.04 0.24 0.12 c0.08 0.04 0.2 0.12 0.28 0.12 s0.24 0.08 0.4 0.2 c0.12 0.16 0.28 0.24 0.32 0.24 s0.08 0.04 0.08 0.08 s0.12 0.16 0.2 0.24 c0.28 0.24 0.72 0.92 0.88 1.4 c0.12 0.4 0.28 1.72 0.32 2.76 c0 1.2 0 1.28 -0.04 1.36 s-0.04 0.32 -0.04 0.56 l0.04 0.32 l-0.04 0.24 c-0.08 0.2 -0.24 1.56 -0.24 2.04 s-0.04 1.12 -0.16 1.72 c-0.04 0.24 -0.04 0.56 -0.04 0.76 l0.04 0.24 l-0.04 0.16 c-0.04 0.04 -0.04 0.2 -0.04 0.32 s0 0.28 -0.04 0.32 l-0.04 0.12 l0.16 0.08 l-0.08 0.04 c-0.04 0.08 -0.08 0.2 -0.08 0.28 c0 0.12 -0.04 0.24 -0.12 0.36 l-0.08 0.08 l0.08 0 s0.04 0.04 0.04 0.12 s0 0.16 0.04 0.16 l0.04 0 c0.08 0 0.08 0.04 0.08 0.08 s-0.08 0.08 -0.12 0.08 s-0.08 0.12 -0.08 0.24 l0 0.44 l-0.04 0.16 l0.04 0.04 l0.16 -0.04 l-0.08 0.08 c-0.08 0.08 -0.16 0.32 -0.16 0.56 c0 0.12 0.04 0.24 0.08 0.28 s0.08 0.16 0.08 0.28 c0 0.2 -0.04 0.4 -0.16 0.4 l-0.04 -0.04 l-0.04 0.04 c0 0.04 0.04 0.08 0.08 0.08 s0.08 0.04 0.08 0.08 s0 0.04 -0.04 0.04 l-0.04 0 c-0.04 0 -0.08 0 -0.12 0.04 c0 0.08 0 0.12 0.08 0.16 l0.08 0.04 l-0.08 0.04 c-0.04 0 -0.08 0.04 -0.08 0.08 s0.04 0.04 0.04 0.04 l0.08 0 c0.04 0 0.04 0 0.04 0.04 s0 0.08 -0.04 0.08 s-0.12 0.04 -0.2 0.12 c-0.08 0.04 -0.08 0.08 -0.08 0.12 l0.12 0.36 c0 0.08 -0.04 0.12 -0.08 0.12 l-0.08 0 l0.12 0.28 l-0.08 0.16 c-0.04 0.04 -0.04 0.08 -0.04 0.16 l0 0.08 c0 0.08 0 0.16 -0.04 0.16 l-0.04 0.04 l0.04 0 c0.04 0 0.04 0.04 0.04 0.08 l0 0.08 c0 0.12 0 0.16 0.04 0.16 l0.04 -0.04 c0.04 -0.04 0.2 -0.08 0.32 -0.08 l0.68 -0.12 c0.04 -0.04 0.24 -0.08 0.4 -0.12 c0.16 0 0.24 0 0.24 0.04 l-0.04 0.04 c-0.04 0.08 -0.16 0.12 -0.28 0.16 c-0.08 0.04 -0.16 0.08 -0.16 0.12 l0.04 0.08 l0.08 -0.04 c0.16 -0.08 0.32 -0.08 0.48 -0.08 c0.08 0 0.16 0 0.16 0.04 s0.16 0.08 0.36 0.08 c0.36 0 0.48 0.08 0.56 0.36 l0 0.08 c0 0.08 -0.08 0.16 -0.36 0.32 c-0.2 0.16 -0.4 0.24 -0.4 0.32 l0.8 -0.24 c0.04 0 0.04 0.04 0.04 0.08 l0 0.04 l0.16 -0.08 l0.08 0.04 l0 0.04 c0 0.08 -0.12 0.2 -0.24 0.2 l-0.36 0.16 c-0.12 0.04 -0.2 0.08 -0.28 0.08 l-0.2 -0.04 c-0.12 0 -0.2 0 -0.2 0.04 l0 0.04 c0 0.04 -0.04 0.08 -0.08 0.08 c-0.32 0.04 -0.8 0.2 -1 0.36 c-0.12 0.08 -0.28 0.12 -0.44 0.12 l-0.12 0 c-0.16 0 -0.2 0.08 -0.28 0.24 l0 0.08 c0 0.04 0 0.04 0.08 0.04 l0.2 -0.04 l0.08 0.08 c0 0.04 -0.08 0.08 -0.2 0.08 s-0.2 0.04 -0.24 0.16 s-0.12 0.16 -0.24 0.16 s-0.24 0.16 -0.24 0.32 c0 0.08 0.04 0.12 0.12 0.16 l0.12 0.04 c0.04 0 0.04 -0.04 0.04 -0.16 l0.04 -0.08 l0.04 0.16 c0 0.12 0 0.24 -0.08 0.24 c-0.04 0 -0.04 0.04 -0.04 0.08 l0 0.08 c0 0.12 -0.12 0.2 -0.2 0.2 l-0.08 0 l-0.04 -0.04 c-0.04 0 -0.04 0.08 -0.04 0.2 c0.04 0.16 0.04 0.2 0.08 0.2 l0.16 0 c0.08 0 0.16 0.08 0.16 0.2 l-0.04 0.12 l-0.12 0.08 l-0.08 -0.08 c-0.04 0 -0.04 0.04 -0.04 0.12 c-0.04 0.12 -0.08 0.24 -0.16 0.24 c-0.04 0 -0.08 0.04 -0.08 0.08 l0 0.04 c0 0.08 0.04 0.08 0.12 0.08 l0.08 -0.04 l0 0.08 l-0.04 0.2 l0.04 0 l0.08 -0.12 c0.04 -0.08 0.08 -0.2 0.08 -0.32 c0 -0.08 0 -0.16 0.04 -0.16 s0.04 0.04 0.04 0.16 l0 0.12 l-0.04 0.36 s-0.04 0.04 -0.12 0.04 s-0.16 0.08 -0.16 0.16 s0.04 0.16 0.08 0.16 s0.08 -0.08 0.08 -0.16 l0.04 -0.04 l0.04 0.08 c0 0.12 -0.04 0.2 -0.12 0.2 c-0.04 0 -0.12 0.08 -0.12 0.24 c-0.04 0.12 -0.04 0.16 -0.08 0.16 l-0.08 -0.08 c-0.04 0 -0.04 0.08 -0.04 0.16 l0.04 0.2 c0.04 0.08 0.08 0.12 0.12 0.12 c0.08 0 0.12 -0.08 0.12 -0.2 c0 -0.08 0 -0.16 0.04 -0.16 s0.08 0.12 0.08 0.28 s-0.04 0.32 -0.08 0.4 c-0.04 0.04 -0.08 0.12 -0.08 0.2 l0 0.12 c0 0.24 -0.08 0.6 -0.16 0.6 l-0.04 0 l-0.08 0.04 c0 0.04 -0.04 0.04 -0.12 0.04 l-0.04 0 l0 0.04 c0 0.04 0.04 0.08 0.08 0.08 s0.04 0.04 0.04 0.12 c-0.04 0.04 -0.08 0.08 -0.12 0.08 s-0.08 0.2 -0.08 0.44 c0 0.04 -0.04 0.2 -0.12 0.36 l-0.04 0.24 l0.04 0.04 l0.12 -0.04 c0.04 0 0.04 0.04 0.04 0.16 c-0.04 0.08 -0.04 0.2 -0.04 0.24 s-0.04 0.04 -0.08 0.04 s-0.08 0.08 -0.16 0.16 l-0.04 0.08 c0.04 -0.04 0.16 -0.08 0.28 -0.08 s0.16 -0.04 0.16 -0.16 l0 -0.12 l0.04 0.08 l-0.04 0.92 c-0.04 0.52 -0.12 0.84 -0.16 0.84 l0 -0.36 c0 -0.24 0 -0.32 -0.04 -0.32 l-0.04 0 l-0.04 0.08 l0.04 0.12 l-0.04 0.2 c0 0.2 0 0.32 0.08 0.36 c0.04 0.04 0.04 0.12 0.04 0.16 c-0.04 0.04 -0.04 0.08 -0.08 0.08 l-0.04 0 c-0.08 0 -0.2 0.4 -0.2 0.88 c-0.04 0.24 -0.08 0.32 -0.12 0.32 l-0.12 -0.2 l0 0.08 c0 0.12 -0.04 0.2 -0.08 0.28 l-0.04 0.04 l0.04 0.04 l0.16 -0.08 l0.08 -0.08 l0 0.08 c0 0.04 0.08 0.08 0.12 0.08 s0.08 0.04 0.08 0.16 l-0.04 0.32 c-0.04 0.32 -0.08 0.52 -0.12 0.52 l0 -0.52 l-0.08 0.12 c-0.04 0.08 -0.08 0.2 -0.08 0.28 c0 0.12 -0.04 0.16 -0.12 0.16 l-0.08 -0.04 c0 -0.04 0 -0.04 -0.04 -0.04 l-0.12 0.68 l-0.04 0.52 c0 0.08 0 0.08 0.04 0.08 s0.08 -0.12 0.12 -0.28 c0 -0.12 0.04 -0.24 0.08 -0.24 l0.04 0.12 c0 0.2 -0.08 0.48 -0.16 0.48 c-0.12 0 -0.24 0.36 -0.28 0.76 c0 0.44 -0.04 0.68 -0.12 0.76 s-0.08 0.2 -0.08 0.32 c0 0.08 0 0.16 0.04 0.16 s0.08 0.04 0.12 0.12 l-0.04 0.08 l-0.04 0 c-0.04 0 -0.12 0.08 -0.16 0.24 c-0.12 0.28 -0.32 0.56 -0.4 0.56 l0 -0.04 c0 -0.08 0.04 -0.16 0.12 -0.28 l0.16 -0.16 c0 -0.04 -0.04 -0.04 -0.16 -0.04 c-0.16 0.04 -0.24 0.08 -0.24 0.2 l0.04 0.2 c0 0.16 0 0.28 -0.08 0.32 s-0.12 0.08 -0.12 0.12 c0 0 0.04 0.04 0.12 0.04 l0.2 -0.04 l0.04 0.04 l0 0.08 c-0.04 0.04 -0.08 0.12 -0.12 0.12 c-0.08 0 -0.16 0.28 -0.24 0.88 l0 0.16 l0.04 0 l0.08 -0.16 l0 -0.04 c0 -0.2 0.28 -0.8 0.36 -0.8 l0 0.08 c0 0.16 -0.08 0.56 -0.16 0.56 l-0.04 0.08 l0.08 0.52 l-0.08 0.28 l-0.08 0.16 l0.12 0.08 l-0.04 0.16 c-0.04 0.08 -0.08 0.12 -0.16 0.12 l-0.04 0 c-0.04 0 -0.08 0 -0.08 0.08 c0 0.04 -0.04 0.04 -0.08 0.04 l-0.04 -0.04 l-0.04 0.08 c0 0.04 0.04 0.08 0.08 0.08 s0.04 0 0.04 0.04 l0 0.04 c0 0.04 -0.08 0.04 -0.12 0.04 l-0.04 0 l-0.04 0.04 c0 0.08 0.08 0.24 0.16 0.4 c0.04 0.12 0.08 0.2 0.08 0.28 l0 0.04 c-0.04 0.04 -0.04 0.08 -0.04 0.16 c0 0.2 0.12 0.56 0.24 0.56 c0.08 0 0.12 0.04 0.12 0.08 l-0.08 0.12 l-0.04 0.04 c0 0.04 0.04 0.08 0.08 0.12 c0.08 0.04 0.08 0.04 0.08 0.08 l-0.08 0.08 c-0.08 0.04 -0.24 0.04 -0.36 0.04 z M35.198 11.68 l0.04 -0.08 l-0.08 -0.04 l0 0.12 l0.04 0 z M47.318 14.16 l0 -0.12 l-0.08 0.04 c0.04 0.08 0.04 0.08 0.08 0.08 z M34.838 14.760000000000002 l0 -0.08 c0.04 -0.04 0.04 -0.08 0.08 -0.08 l0.04 0.04 z M47.278000000000006 17.64 l-0.08 -0.04 l0.08 -0.12 c0.04 0 0.04 0.04 0.04 0.08 l0 0.04 s0 0.04 -0.04 0.04 z M31.078 18.64 c0.04 0 0.08 -0.04 0.08 -0.08 l0.04 -0.04 l-0.04 -0.04 l-0.08 0.08 l0 0.08 z M33.478 20.68 l0.08 -0.04 l-0.04 -0.04 l-0.08 0 l0 0.04 z M47.038 20.96 l-0.04 -0.12 c0 -0.08 0.04 -0.2 0.08 -0.2 c0 -0.04 0.04 -0.04 0.04 -0.04 l0.04 0.04 z M43.998000000000005 21.04 l0 -0.16 l-0.04 -0.04 l-0.04 0.08 c0.04 0.08 0.04 0.12 0.08 0.12 z M34.038 21.24 c0 0 -0.04 -0.04 -0.04 -0.12 l0 -0.12 c0.04 0 0.04 0 0.04 0.04 l0 0.2 z M47.078 21.2 l-0.04 -0.08 l0 -0.04 l0.08 0.04 z M46.918 22.12 l-0.04 -0.04 l0.08 -0.24 l0.04 -0.08 l0.04 0.12 c0 0.08 -0.04 0.2 -0.08 0.2 z M47.038 22.72 c0.08 0 0.16 -0.04 0.4 -0.12 l0.24 -0.12 l-0.24 0 c-0.12 0 -0.16 0 -0.2 -0.04 l-0.08 -0.04 c-0.04 0 -0.08 0.04 -0.12 0.08 c-0.08 0.04 -0.08 0.12 -0.08 0.16 c0.04 0.04 0.04 0.08 0.08 0.08 z M30.558 22.56 l-0.04 0 l-0.04 -0.04 c0 -0.04 0 -0.08 0.04 -0.08 l0 0.04 c0.04 0 0.04 0.04 0.04 0.08 z M33.038 22.68 l0.08 -0.04 c0 -0.04 -0.04 -0.08 -0.08 -0.08 l-0.04 0 c-0.04 0 -0.04 0 -0.04 0.04 s0.04 0.08 0.08 0.08 z M33.798 22.88 c0 0 -0.04 -0.04 -0.04 -0.12 l0 -0.08 l0.08 0.12 z M49.438 23.28 l-0.04 0 c-0.08 0 -0.08 0 -0.08 -0.04 l0.08 -0.04 z M48.798 23.36 c0.08 0 0.12 0 0.12 -0.04 l-0.08 -0.04 l-0.08 0.04 l-0.04 0 z M48.678 23.6 c0.08 0 0.12 -0.04 0.12 -0.04 l-0.08 -0.04 c-0.04 0 -0.08 0 -0.08 0.04 l-0.04 0 c0 0.04 0.04 0.04 0.08 0.04 z M33.718 23.64 l-0.04 -0.04 l0 -0.08 c0.04 0 0.04 0 0.04 0.04 l0.04 0.04 z M47.397999999999996 24.84 c-0.04 0 -0.04 0 -0.04 -0.04 c0 -0.08 -0.08 -0.12 -0.12 -0.12 l-0.08 0 l0.04 -0.08 l0.08 -0.04 l0.16 0.12 l0.04 -0.08 l0.08 -0.04 l0.04 0.04 c0.04 0.04 0.12 0.04 0.2 0.04 l0.04 -0.08 l0 -0.04 c0 -0.04 0.16 -0.08 0.36 -0.08 s0.36 -0.04 0.36 -0.08 s0.08 -0.08 0.2 -0.08 s0.36 -0.04 0.48 -0.12 s0.24 -0.12 0.28 -0.12 l0.08 0 l0.12 -0.04 l0.08 -0.04 l0.08 0 l0 0.04 c0 0.04 0 0.08 -0.04 0.08 c-0.12 0.12 -1.36 0.52 -1.6 0.56 c-0.12 0.04 -0.4 0.08 -0.56 0.16 z M46.598 24.92 l0.08 -0.04 c0 -0.04 -0.04 -0.08 -0.08 -0.08 l-0.04 -0.04 l0 0.04 c-0.04 0 -0.04 0 -0.04 0.04 s0.04 0.08 0.08 0.08 z M43.158 25.36 c0.04 0 0.08 -0.04 0.08 -0.08 s-0.04 -0.08 -0.08 -0.08 l-0.04 0.08 l0 0.04 c0 0.04 0 0.04 0.04 0.04 z M42.757999999999996 25.36 l-0.04 -0.08 l-0.08 0.04 c0 0.04 0 0.04 0.08 0.04 l0.04 0 z M42.158 25.48 c0.08 0 0.28 -0.04 0.32 -0.08 l0.04 -0.04 l-0.2 0 c-0.12 0 -0.24 0.04 -0.24 0.08 s0.04 0.04 0.08 0.04 z M45.238 25.880000000000003 l0.08 -0.04 l-0.04 -0.04 c0 -0.04 -0.04 -0.04 -0.04 -0.04 l0 0.12 z M40.758 26.2 c0.2 0 0.56 -0.08 0.68 -0.12 l0.04 -0.04 c0 -0.04 -0.08 -0.04 -0.28 -0.04 c-0.36 0 -0.6 0.04 -0.6 0.16 z M38.718 26.36 c0.16 0 0.44 -0.04 0.96 -0.16 c0.28 -0.04 0.36 -0.08 0.36 -0.12 l-1 0.08 c-0.08 0.04 -0.24 0.04 -0.32 0.04 s-0.12 0.04 -0.12 0.08 l0 0.04 c0 0.04 0.04 0.04 0.12 0.04 z M46.558 26.36 c-0.04 0 -0.04 0 -0.04 -0.08 l0 -0.04 l0.04 0 l0 0.12 z M36.678 26.439999999999998 l0.08 -0.04 l0 -0.04 c0 -0.04 -0.04 -0.08 -0.08 -0.08 s-0.08 0.04 -0.08 0.08 l0 0.04 z M46.518 26.52 l-0.12 0 l0 -0.04 s0 -0.04 0.04 -0.04 z M41.397999999999996 26.6 c-0.04 0 -0.04 0 -0.04 -0.08 l0 -0.04 l0.08 0.04 z M39.118 26.759999999999998 l-0.04 -0.04 c0 -0.04 0.04 -0.04 0.04 -0.04 l0.08 0.04 z M46.238 26.880000000000003 c0.08 -0.04 0.16 -0.08 0.16 -0.12 l-0.08 -0.04 l-0.08 0 c-0.08 0.04 -0.16 0.08 -0.16 0.12 s0.08 0.04 0.16 0.04 z M33.158 27.759999999999998 l0.04 -0.16 l0 -0.08 c0 -0.04 0 -0.08 -0.04 -0.08 s-0.04 0.04 -0.04 0.08 l0 0.08 c0 0.08 0 0.16 0.04 0.16 z M45.998000000000005 27.96 l0.04 -0.04 l-0.04 -0.04 s0 -0.04 -0.04 -0.04 l0 0.08 z M46.158 28.52 l0.04 -0.08 c0 -0.08 0.04 -0.08 0.08 -0.12 l0 0.04 l-0.04 0.12 z M45.878 30.16 c0.12 -0.04 0.16 -0.16 0.2 -0.48 c0.04 -0.2 0.04 -0.44 0.04 -0.44 c-0.04 0 -0.16 0.36 -0.16 0.52 c0 0.04 -0.04 0.2 -0.12 0.28 c-0.04 0.04 -0.08 0.08 -0.08 0.12 l0.12 0 z M32.878 30.2 c0.04 -0.04 0.08 -0.08 0.08 -0.12 s-0.04 -0.04 -0.04 -0.04 l-0.04 0 c-0.04 0.04 -0.08 0.08 -0.08 0.12 l0.04 0.04 l0.04 0 z M45.998000000000005 30.8 l-0.04 -0.12 c0 -0.08 0.04 -0.16 0.08 -0.16 s0.04 0.04 0.04 0.12 c-0.04 0.08 -0.04 0.16 -0.08 0.16 z M45.918 31.48 l-0.04 -0.08 c0 -0.08 0 -0.12 0.04 -0.12 l0.04 0.12 z M44.598 31.64 c0.04 0 0.04 -0.08 0.04 -0.12 c0 -0.08 -0.04 -0.12 -0.08 -0.12 s-0.08 0.04 -0.08 0.12 c0.04 0.04 0.08 0.12 0.12 0.12 z M44.798 31.52 c0 -0.04 0 -0.08 -0.04 -0.12 c-0.04 0 -0.04 0.04 -0.04 0.08 l0.04 0.04 l0.04 0 z M44.798 31.759999999999998 l0.04 -0.08 l-0.08 -0.04 l0 0.12 l0.04 0 z M44.678 32.4 c0.04 0 0.08 -0.04 0.08 -0.08 l0 -0.04 c0 -0.04 0 -0.04 -0.04 -0.04 s-0.08 0.04 -0.08 0.08 z M45.038 32.64 l-0.04 -0.12 c-0.04 -0.04 -0.04 -0.08 -0.08 -0.08 l0 0.12 z M45.718 32.72 c0.04 0 0.04 -0.08 0.04 -0.16 s-0.04 -0.12 -0.08 -0.12 s-0.04 0.08 -0.04 0.16 z M32.758 32.6 l-0.04 0 l0 -0.12 l0.08 0.04 z M45.478 32.6 l0.04 -0.04 l-0.04 -0.08 c-0.04 0 -0.04 0.04 -0.04 0.08 s0.04 0.04 0.04 0.04 z M44.438 32.72 c0.04 0 0.08 -0.04 0.12 -0.08 l0 -0.04 c0 -0.04 0 -0.04 -0.04 -0.04 s-0.08 0.04 -0.12 0.08 c0 0.04 0 0.08 0.04 0.08 z M42.838 32.72 l0.04 -0.04 l0 -0.04 l-0.12 0 c0 0.04 0 0.08 0.08 0.08 z M45.638000000000005 33.04 c0.04 0 0.08 -0.08 0.08 -0.16 c0 -0.04 -0.04 -0.08 -0.08 -0.08 l0 0.04 c-0.04 0 -0.08 0.08 -0.08 0.16 l0.04 0.04 l0.04 0 z M42.757999999999996 33.08 l0.04 -0.08 l-0.08 -0.04 l0 0.04 c0 0.08 0 0.08 0.04 0.08 z M44.478 33.28 c0.04 0 0.12 0 0.16 -0.04 c0 -0.04 -0.04 -0.08 -0.08 -0.08 c-0.08 0 -0.16 0.04 -0.16 0.08 s0.04 0.04 0.08 0.04 z M31.918 33.480000000000004 c0.04 0 0.08 -0.04 0.08 -0.08 s-0.04 -0.08 -0.08 -0.08 s-0.08 0.04 -0.08 0.08 z M45.198 34.68 l0.04 -0.08 c0.04 -0.08 0.08 -0.24 0.08 -0.36 c0.04 -0.12 0.04 -0.2 0.08 -0.2 l0.08 0.08 l0.12 0.04 l-0.04 -0.08 c0 -0.04 -0.08 -0.12 -0.16 -0.12 l-0.04 0 c-0.08 0 -0.12 0.12 -0.16 0.6 l0 0.12 z M44.438 34.36 c0.04 -0.04 0.08 -0.08 0.08 -0.12 s-0.04 -0.08 -0.08 -0.08 s-0.08 0.08 -0.08 0.12 l0.04 0.08 l0.04 0 z M45.518 34.72 l-0.04 -0.04 l0.04 -0.04 c0 -0.04 0.04 -0.08 0.08 -0.08 l0 0.08 z M43.638000000000005 34.64 l0.04 -0.04 l-0.08 -0.04 s-0.04 0 -0.04 0.04 c0 0 0 0.04 0.08 0.04 z M44.718 34.96 c0.04 0 0.08 -0.08 0.08 -0.16 l0 -0.08 c0 -0.08 0 -0.08 -0.04 -0.08 c-0.04 0.04 -0.08 0.16 -0.08 0.24 c0 0.04 0 0.08 0.04 0.08 z M45.478 34.96 l-0.04 -0.08 l0.08 -0.08 c0.04 0 0.04 0.04 0.04 0.08 s0 0.08 -0.08 0.08 z M44.678 35.64 l0.08 -0.08 l0 -0.08 c-0.04 0 -0.08 0.04 -0.08 0.08 l-0.04 0.04 z M44.598 35.88 c0.04 0 0.08 -0.04 0.08 -0.08 l0.04 -0.04 l-0.04 -0.04 l-0.08 0.08 l0 0.08 z M44.958 36.32 c0.04 -0.04 0.08 -0.16 0.08 -0.32 l0.04 -0.2 l-0.04 -0.08 c-0.04 0 -0.08 0.08 -0.08 0.2 l0 0.32 l-0.04 0.08 l0.04 0 z M31.558 36.32 c0.08 0 0.08 0 0.08 -0.04 l-0.12 0 l0 0.04 l0.04 0 z M44.998000000000005 37.16 c-0.04 0 -0.08 0 -0.08 -0.04 l0.08 -0.2 c0 -0.08 0.04 -0.12 0.04 -0.12 l0 0.2 c0 0.08 0 0.12 -0.04 0.16 z M45.238 37.12 c-0.04 0 -0.04 -0.04 -0.04 -0.04 l0 -0.04 c0 -0.04 0.04 -0.08 0.08 -0.08 l0.04 0.08 c0 0.04 -0.04 0.08 -0.08 0.08 z M43.998000000000005 37.2 l0.08 -0.04 l-0.04 -0.04 l-0.08 0 l0 0.04 z M43.678 37.4 l0.04 -0.04 c0.04 0 0.08 -0.08 0.08 -0.12 c-0.04 0 -0.04 -0.04 -0.04 -0.04 c-0.04 0 -0.04 0 -0.04 0.04 c-0.04 0 -0.08 0.08 -0.08 0.12 z M45.118 37.56 l0.04 -0.24 l0.08 -0.04 l0 0.04 c0 0.04 0 0.12 -0.04 0.16 z M43.998000000000005 37.48 l0.04 -0.08 l-0.08 -0.12 l0 0.08 c0 0.08 0 0.12 0.04 0.12 z M44.638000000000005 37.64 l0 -0.12 c0 -0.04 0 -0.08 -0.04 -0.08 l-0.08 0.04 z M43.678 37.8 c0.04 0 0.08 -0.04 0.08 -0.08 l-0.04 -0.08 c-0.04 0 -0.08 0.04 -0.08 0.08 l0 0.04 z M43.918 38.08 c0 -0.04 0 -0.08 -0.04 -0.08 l0 -0.04 c-0.04 0 -0.04 0.04 -0.04 0.08 l0.04 0.04 l0.04 0 z M44.757999999999996 38.56 l-0.08 -0.04 l0.04 -0.04 c0 -0.04 0.04 -0.08 0.12 -0.08 l0.04 0.04 l-0.04 0.04 c0 0.04 -0.04 0.08 -0.08 0.08 z M44.718 38.96 l-0.04 -0.12 c0 -0.04 0.04 -0.12 0.08 -0.12 s0.04 0.04 0.04 0.08 l0 0.04 c0 0.08 -0.04 0.12 -0.08 0.12 z M44.118 39.2 c0.04 0 0.08 -0.04 0.08 -0.08 c-0.04 -0.08 -0.08 -0.12 -0.12 -0.12 l-0.08 0 l-0.04 0.04 c0 0.08 0.08 0.16 0.16 0.16 z M43.718 39.44 l0.08 -0.12 l-0.08 -0.04 c-0.04 0 -0.04 0 -0.04 0.04 l0 0.04 c0 0.04 0 0.08 0.04 0.08 z M41.518 39.96 l0 -0.04 c0 -0.04 -0.04 -0.04 -0.04 -0.04 c-0.04 0 -0.04 0 -0.04 0.04 l0 0.04 l0.08 0 z M43.438 40.04 l0.04 -0.04 l-0.04 -0.08 l-0.04 0 l0 0.04 z M44.118 40.36 c0.08 0 0.08 -0.04 0.08 -0.08 l-0.12 0 l0 0.04 z M43.518 40.52 l0.08 -0.04 l-0.04 -0.04 l-0.08 0 l0 0.04 s0 0.04 0.04 0.04 z M43.438 41.12 l0.08 -0.16 l0 -0.16 l-0.12 0.16 l-0.04 0.12 c0 0.04 0.04 0.04 0.08 0.04 z M43.198 41.32 c0.04 -0.04 0.08 -0.08 0.08 -0.12 s0 -0.04 -0.04 -0.04 l-0.04 0 c-0.04 0.04 -0.08 0.08 -0.08 0.12 z M43.038 42.24 l0.04 -0.04 l-0.04 -0.04 l-0.04 0 l0 0.04 z M43.798 43.04 c0.04 0 0.04 -0.04 0.04 -0.08 s-0.04 -0.08 -0.08 -0.08 s-0.08 -0.04 -0.08 -0.08 l-0.08 -0.12 c-0.04 0 -0.08 0 -0.12 0.08 c0 0.04 0.04 0.16 0.12 0.2 z M43.558 43.44 c0.04 0 0.08 0 0.08 -0.04 l-0.08 -0.08 l-0.08 0 l0 0.04 c0 0.04 0.04 0.08 0.08 0.08 z M43.757999999999996 44.12 l-0.04 0 c-0.08 0 -0.08 0 -0.08 -0.04 l0.12 0 l0 0.04 z M43.638000000000005 44.44 l-0.04 -0.04 c0 -0.04 0.04 -0.04 0.04 -0.04 l0.08 0.04 s0 0.04 -0.08 0.04 z">
        </path>
        </g>
        </svg>