<?xml version="1.0" encoding="UTF-8"?><svg viewBox="0 0 1385 1385" xmlns="http://www.w3.org/2000/svg"><g fill="#FFFFFA" fill-opacity=".05" fill-rule="evenodd"><path d="m692.4 1384.8c-93.293 0-184.02-18.366-269.65-54.588-82.49-34.887-156.49-84.752-219.95-148.21-63.452-63.45-113.32-137.46-148.22-219.96-36.219-85.627-54.585-176.35-54.585-269.64 0-93.291 18.365-184.01 54.586-269.64 34.894-82.501 84.761-156.5 148.22-219.96 63.451-63.451 137.46-113.32 219.96-148.21 85.637-36.219 176.36-54.584 269.64-54.584 93.288 0 184.01 18.365 269.64 54.586 82.497 34.893 156.5 84.758 219.96 148.21 63.457 63.457 113.32 137.47 148.22 219.97 36.218 85.621 54.582 176.34 54.582 269.63 0 93.291-18.366 184.01-54.587 269.65-34.886 82.487-84.75 156.49-148.21 219.95-63.458 63.457-137.46 113.32-219.96 148.22-85.633 36.22-176.36 54.585-269.64 54.585"/><path d="m692.4 1314.8c-83.872 0-165.42-16.505-242.38-49.058-74.146-31.358-140.67-76.185-197.72-133.24-57.046-57.045-101.88-123.57-133.24-197.73-32.551-76.953-49.055-158.5-49.055-242.37 0-83.872 16.504-165.42 49.055-242.38 31.366-74.157 76.196-140.68 133.24-197.73 57.045-57.046 123.57-101.87 197.73-133.24 76.96-32.551 158.51-49.055 242.37-49.055 83.869 0 165.42 16.505 242.38 49.056 74.152 31.363 140.68 76.191 197.73 133.24 57.051 57.052 101.88 123.58 133.24 197.74 32.548 76.947 49.052 158.49 49.052 242.37 0 83.873-16.505 165.42-49.057 242.38-31.358 74.143-76.184 140.67-133.24 197.72-57.049 57.049-123.58 101.88-197.73 133.24-76.958 32.551-158.5 49.056-242.38 49.056"/><path d="m692.4 1244.8c-74.452 0-146.82-14.645-215.11-43.527-65.804-27.83-124.85-67.62-175.5-118.26-50.641-50.64-90.433-109.69-118.27-175.5-28.883-68.28-43.526-140.65-43.526-215.1s14.643-146.82 43.526-215.11c27.836-65.812 67.627-124.86 118.27-175.5 50.638-50.64 109.68-90.432 175.5-118.27 68.284-28.881 140.66-43.526 215.1-43.526 74.451 0 146.82 14.645 215.11 43.526 65.808 27.834 124.86 67.625 175.5 118.27 50.645 50.646 90.436 109.7 118.27 175.51 28.88 68.272 43.524 140.64 43.524 215.1 0 74.453-14.644 146.83-43.527 215.11-27.829 65.802-67.62 124.85-118.26 175.5-50.64 50.641-109.69 90.433-175.5 118.27-68.283 28.881-140.66 43.526-215.11 43.526"/><path d="m692.4 1174.8c-65.034 0-128.23-12.784-187.84-37.997-57.463-24.303-109.03-59.057-153.27-103.29-44.237-44.234-78.991-95.803-103.3-153.27-25.212-59.607-37.996-122.8-37.996-187.84 0-65.033 12.784-128.23 37.996-187.84 24.307-57.468 59.061-109.04 103.3-153.27 44.234-44.234 95.802-78.988 153.27-103.3 59.608-25.213 122.8-37.996 187.84-37.996 65.032 0 128.23 12.783 187.84 37.996 57.467 24.306 109.03 59.059 153.27 103.3 44.239 44.239 78.992 95.809 103.3 153.28 25.212 59.601 37.995 122.8 37.995 187.83 0 65.033-12.784 128.23-37.997 187.84-24.302 57.464-59.056 109.03-103.29 153.27-44.233 44.233-95.801 78.987-153.27 103.3-59.607 25.212-122.8 37.996-187.84 37.996"/><path d="m692.4 1104.8c-55.613 0-109.64-10.923-160.57-32.467-49.122-20.775-93.212-50.492-131.04-88.321s-67.545-81.919-88.325-131.04c-21.543-50.932-32.465-104.96-32.465-160.57 0-55.614 10.922-109.64 32.465-160.57 20.779-49.125 50.496-93.215 88.325-131.04 37.828-37.828 81.918-67.545 131.04-88.323 50.932-21.542 104.96-32.466 160.57-32.466s109.64 10.924 160.57 32.467c49.124 20.777 93.213 50.493 131.04 88.322 37.829 37.83 67.546 81.92 88.323 131.04 21.543 50.93 32.465 104.95 32.465 160.57 0 55.612-10.922 109.64-32.466 160.57-20.776 49.122-50.493 93.212-88.322 131.04-37.828 37.828-81.918 67.544-131.04 88.323-50.931 21.543-104.96 32.466-160.57 32.466"/><path d="m692.4 1034.8c-46.192 0-91.041-9.063-133.3-26.937-40.781-17.248-77.391-41.926-108.81-73.349s-56.102-68.033-73.351-108.82c-17.874-42.257-26.936-87.106-26.936-133.3 0-46.194 9.062-91.041 26.936-133.3 17.249-40.781 41.928-77.393 73.351-108.82 31.423-31.424 68.033-56.101 108.81-73.351 42.258-17.873 87.106-26.936 133.3-26.936s91.041 9.063 133.3 26.937c40.781 17.249 77.391 41.926 108.81 73.35 31.423 31.422 56.102 68.034 73.35 108.82 17.874 42.258 26.936 87.105 26.936 133.3 0 46.192-9.062 91.041-26.936 133.3-17.248 40.782-41.927 77.392-73.35 108.82s-68.033 56.1-108.81 73.349c-42.258 17.874-87.106 26.937-133.3 26.937"/></g></svg>