<?xml version="1.0" encoding="UTF-8"?><svg enable-background="new 0 0 452.986 452.986" version="1.1" viewBox="0 0 452.99 452.99" xml:space="preserve" xmlns="http://www.w3.org/2000/svg"><g fill="#ff4d5a"><path d="m0 0v452.99h452.99v-452.99h-452.99zm403.27 24.655c8.089 0 14.668 6.579 14.647 14.647 0 8.089-6.558 14.69-14.647 14.69s-14.668-6.601-14.668-14.69c0.021-8.046 6.579-14.647 14.668-14.647zm-51.231 0c8.046 0 14.647 6.579 14.625 14.647 0 8.089-6.579 14.69-14.625 14.69-8.132 0-14.668-6.601-14.668-14.69 0.022-8.046 6.579-14.647 14.668-14.647zm65.899 393.97h-382.88v-332.92h382.88v332.92z"/><path d="m356.72 247.35-119.33 70.019c-9.426-3.624-20.384-2.61-29.207 3.775-13.676 9.966-16.696 29.185-6.752 42.818 10.009 13.784 29.207 16.739 42.883 6.773 8.801-6.32 13.137-16.48 12.576-26.51l103.32-92.129-3.494-4.746z"/><path d="m72.866 343.73c-2.092-10.181-3.171-20.708-3.171-31.493 0-8.283 0.841-16.372 2.092-24.31l31.45 6.816 4.681-21.571-31.342-6.752c4.357-14.15 10.721-27.416 18.702-39.561l22.865 16.976 13.137-17.71-22.541-16.739c10.268-11.627 22.218-21.657 35.506-29.811l13.029 24.569 19.478-10.332-13.029-24.504c16.006-6.924 33.435-11.087 51.684-12.252v26.748h22.024v-26.64c18.227 1.381 35.527 5.889 51.468 13.029l-12.533 23.598 19.435 10.332 12.468-23.512c13.007 8.197 24.699 18.227 34.707 29.789l-21.161 15.704 13.137 17.71 21.247-15.768c7.701 11.95 13.913 24.957 18.119 38.871l-29.142 6.277 4.681 21.571 29.207-6.32c1.208 7.765 2.006 15.704 2.006 23.814 0 10.785-1.1 21.312-3.192 31.493h19.09c1.877-10.268 3.02-20.708 3.02-31.493 0-96.378-78.173-174.57-174.57-174.57-96.443 0-174.59 78.194-174.59 174.57 0 10.785 1.122 21.226 2.977 31.493l19.067-0.022z"/></g></svg>