<?xml version="1.0" standalone="no"?>
<!DOCTYPE svg PUBLIC "-//W3C//DTD SVG 20010904//EN"
 "http://www.w3.org/TR/2001/REC-SVG-20010904/DTD/svg10.dtd">
<svg version="1.0" xmlns="http://www.w3.org/2000/svg"
 width="1280.000000pt" height="968.000000pt" viewBox="0 0 1280.000000 968.000000"
 preserveAspectRatio="xMidYMid meet">
<metadata>
Created by potrace 1.15, written by Peter Selinger 2001-2017
</metadata>
<g transform="translate(0.000000,968.000000) scale(0.100000,-0.100000)"
fill="#000000" stroke="none">
<path d="M9570 8805 c-25 -40 -22 -39 -60 -20 -26 14 -29 13 -44 -10 -21 -32
-20 -38 3 -25 15 8 28 5 55 -11 l35 -20 14 23 c8 13 18 33 22 46 5 17 14 22
38 22 l32 1 -34 14 c-18 8 -35 15 -36 15 -2 0 -13 -16 -25 -35z"/>
<path d="M10134 8751 l-25 -39 -56 24 c-31 14 -56 24 -57 22 -2 -2 -13 -18
-25 -36 -28 -40 -23 -49 12 -22 l26 21 46 -36 c26 -19 53 -35 61 -35 7 0 25
22 39 49 24 48 26 50 60 44 19 -3 35 -3 35 0 0 6 -74 47 -84 47 -3 0 -17 -18
-32 -39z"/>
<path d="M8473 8740 c-43 -6 -83 -33 -83 -55 0 -9 -39 -11 -153 -7 -112 3
-195 0 -308 -14 -95 -11 -222 -19 -331 -19 -98 0 -178 -1 -178 -2 0 -1 30 -12
68 -23 44 -14 130 -26 252 -36 182 -15 278 -32 332 -60 l27 -14 -29 -47 c-16
-25 -53 -76 -82 -113 l-53 -67 -80 -7 c-44 -3 -130 -6 -191 -6 -131 0 -304
-16 -392 -36 -123 -28 -199 -86 -190 -146 2 -16 -8 -24 -57 -43 -100 -37 -150
-67 -365 -210 -184 -124 -362 -225 -396 -225 -7 0 -15 -4 -18 -8 -6 -10 93 4
144 20 19 6 98 39 175 74 146 64 216 88 298 100 l47 6 0 -38 c0 -64 -27 -209
-74 -400 -49 -198 -82 -359 -90 -444 l-5 -55 38 80 c21 44 92 167 159 273 66
105 133 223 149 262 15 38 30 70 33 70 3 0 34 -15 70 -33 l65 -32 52 -153
c104 -302 161 -540 273 -1127 33 -176 71 -366 84 -422 l23 -103 -31 -5 c-33
-5 -399 -49 -1216 -145 -1549 -182 -2152 -273 -2720 -411 -461 -113 -794 -250
-1019 -420 -71 -53 -221 -202 -221 -219 0 -6 537 -92 810 -130 1001 -137 1959
-189 3105 -170 1056 18 2046 83 3405 221 223 23 407 43 408 44 6 6 -63 93
-159 201 -115 130 -251 249 -397 348 -133 89 -445 245 -660 331 -136 53 -700
257 -844 304 -37 13 -70 26 -72 30 -2 3 0 42 5 86 5 44 22 208 39 365 65 602
126 1018 210 1445 59 297 45 283 124 125 61 -121 173 -306 181 -298 2 2 -7 40
-20 85 -13 44 -36 177 -50 294 -23 182 -50 314 -79 379 -8 20 31 35 129 50 74
12 147 9 355 -17 179 -21 321 -21 395 2 l60 19 -65 6 c-87 9 -116 19 -322 116
-204 96 -275 122 -358 131 -65 6 -74 18 -58 77 17 64 60 61 255 -15 86 -33
186 -67 222 -75 73 -15 161 -19 161 -6 0 13 -486 248 -570 276 -97 32 -165 43
-217 36z m-664 -597 c-81 -86 -75 -83 -134 -83 -65 0 -172 -23 -232 -50 -52
-23 -55 -21 -75 42 -10 33 -9 41 7 58 24 27 64 36 231 55 78 9 164 22 190 30
79 22 80 18 13 -52z m401 -10 l42 -58 -7 -70 c-12 -129 -75 -627 -116 -910
-80 -561 -232 -1399 -252 -1392 -14 4 -66 159 -122 361 -48 172 -81 324 -174
801 -34 171 -69 345 -80 388 -11 47 -14 74 -7 69 134 -103 327 -227 399 -257
l38 -16 -55 56 c-58 58 -115 131 -236 305 -41 58 -108 140 -149 184 l-76 78
54 49 c67 60 183 121 360 188 173 66 281 123 339 178 26 25 38 41 27 37 -38
-14 -159 -44 -167 -42 -7 3 121 106 134 107 4 1 26 -25 48 -56z"/>
<path d="M5090 8675 l-25 -14 30 -1 c26 0 33 -6 44 -36 16 -44 33 -51 67 -29
21 13 31 15 50 6 28 -12 29 -9 8 24 -15 23 -18 24 -49 11 -33 -14 -34 -14 -57
20 -26 38 -32 40 -68 19z"/>
<path d="M9330 8554 c-25 -20 -47 -38 -50 -41 -2 -2 18 -1 45 2 l50 7 36 -54
c19 -29 43 -54 52 -56 9 -2 41 21 74 53 l58 56 44 -21 c24 -11 45 -20 46 -18
2 2 -16 24 -40 51 l-43 47 -67 -42 -67 -42 -45 47 c-24 26 -45 47 -46 46 -1 0
-22 -16 -47 -35z"/>
<path d="M5371 8295 l-41 -45 -65 40 c-36 22 -68 40 -70 40 -7 0 -79 -80 -84
-92 -2 -5 19 2 45 15 l49 25 36 -42 c20 -22 50 -49 67 -59 l31 -17 33 44 c18
24 38 51 43 61 9 14 17 15 55 6 24 -5 46 -9 47 -7 3 3 -92 76 -99 76 -3 0 -24
-20 -47 -45z"/>
<path d="M3072 7994 c-18 -27 -28 -34 -43 -30 -10 3 -27 8 -36 11 -13 4 -23
-4 -35 -25 -19 -33 -14 -38 13 -14 17 15 20 14 49 -6 39 -28 53 -22 70 29 12
39 16 41 42 36 15 -4 28 -4 28 -1 0 5 -54 36 -62 36 -2 0 -13 -16 -26 -36z"/>
<path d="M2493 7859 c-18 -12 -33 -22 -33 -24 0 -2 15 -1 33 2 30 5 33 2 54
-41 27 -55 44 -58 96 -15 39 32 45 32 87 2 l24 -18 -19 33 c-31 52 -37 55 -91
32 l-49 -21 -22 28 c-13 15 -23 31 -23 36 0 13 -24 7 -57 -14z"/>
<path d="M2796 7745 c-25 -20 -46 -37 -46 -39 0 -2 21 1 47 6 39 9 48 8 57 -5
52 -76 70 -97 84 -97 9 0 42 25 73 56 l56 56 41 -21 c23 -12 44 -21 47 -21 4
0 -13 22 -37 49 l-43 48 -61 -38 c-34 -22 -65 -39 -71 -39 -5 0 -27 18 -48 40
-21 22 -42 40 -46 40 -3 0 -27 -16 -53 -35z"/>
<path d="M2562 7553 l-53 -46 -45 33 c-44 31 -46 32 -66 14 -11 -11 -29 -31
-39 -46 l-19 -27 40 16 40 16 45 -42 c24 -22 51 -41 60 -41 8 0 32 26 52 58
21 31 38 59 40 61 1 2 21 -1 45 -7 23 -6 44 -10 46 -8 3 4 -79 66 -87 66 -4 0
-30 -21 -59 -47z"/>
</g>
</svg>
