<?xml version="1.0" encoding="UTF-8"?><svg enable-background="new 0 0 512 512" version="1.1" viewBox="0 0 512 512" xml:space="preserve" xmlns="http://www.w3.org/2000/svg"><circle cx="256" cy="389.38" r="8.17"/><path d="m471.15 54.468h-84.426c-4.512 0-8.17 3.658-8.17 8.17s3.658 8.17 8.17 8.17h84.426c13.516 0 24.511 10.995 24.511 24.511v253.28h-479.32v-253.28c0-13.516 10.995-24.511 24.511-24.511h84.426c4.512 0 8.17-3.658 8.17-8.17s-3.658-8.17-8.17-8.17h-84.426c-22.526 0-40.851 18.325-40.851 40.851v294.13c0 22.526 18.325 40.851 40.851 40.851h256v40.851c0 9.19 3.051 17.678 8.192 24.511h-98.086c5.141-6.832 8.192-15.321 8.192-24.511v-16.34c0-4.512-3.658-8.17-8.17-8.17s-8.17 3.658-8.17 8.17v16.34c0 13.516-10.995 24.511-24.511 24.511h-76.257c-4.512 0-8.17 3.658-8.17 8.17s3.658 8.17 8.17 8.17h315.92c4.512 0 8.17-3.658 8.17-8.17s-3.658-8.17-8.17-8.17h-76.254c-13.516 0-24.511-10.995-24.511-24.511v-40.851h157.96c22.526 0 40.851-18.325 40.851-40.851v-294.13c1e-3 -22.526-18.324-40.851-40.85-40.851zm24.511 334.98c0 13.516-10.995 24.511-24.511 24.511h-430.3c-13.516 0-24.511-10.995-24.511-24.511v-24.511h479.32v24.511z" fill="#ff4d5a"/><path d="m321.36 0h-130.72c-22.526 0-40.851 18.325-40.851 40.851v250.55c0 22.526 18.325 40.851 40.851 40.851h130.72c22.526 0 40.851-18.325 40.851-40.851v-250.55c1e-3 -22.526-18.324-40.851-40.85-40.851zm24.51 291.4c0 13.516-10.995 24.511-24.511 24.511h-130.72c-13.516 0-24.511-10.995-24.511-24.511v-13.617h179.74v13.617zm0-236.94h-122.55c-4.512 0-8.17 3.658-8.17 8.17s3.658 8.17 8.17 8.17h122.55v190.64h-179.74v-190.64h24.511c4.512 0 8.17-3.658 8.17-8.17s-3.658-8.17-8.17-8.17h-24.511v-13.618c0-13.516 10.995-24.511 24.511-24.511h130.72c13.516 0 24.511 10.995 24.511 24.511v13.617z" fill="#ff4d5a"/></svg>