<?xml version="1.0" encoding="UTF-8"?>
<svg enable-background="new 0 0 512 512" version="1.1" viewBox="0 0 512 512" xml:space="preserve" xmlns="http://www.w3.org/2000/svg">
<path d="m490.67 341.33v-256c0-23.558-19.109-42.667-42.667-42.667h-384c-23.558 0-42.667 19.109-42.667 42.667v256c-11.782 0-21.333 9.552-21.333 21.334v64c0 23.558 19.109 42.667 42.667 42.667h426.67c23.558 0 42.667-19.109 42.667-42.667v-64c-1e-3 -11.782-9.552-21.334-21.334-21.334zm-426.67-256h384v256h-128c-5.658 0-11.084 2.248-15.085 6.248l-15.085 15.085h-67.66l-15.085-15.085c-4.001-4.001-9.427-6.248-15.085-6.248h-128v-256zm405.33 341.33h-426.67v-42.667h140.5l15.085 15.085c4.001 4.001 9.427 6.248 15.085 6.248h85.333c5.658 0 11.084-2.248 15.085-6.248l15.085-15.085h140.5v42.667z" fill="#ff4d5a"/>
<path d="m214.08 231.73c0-13.397-10.901-24.277-24.277-24.277h-16.192c-4.459 0-8.085-3.648-8.085-8.107s3.627-8.085 8.085-8.085h12.843c5.205 0 10.112 2.027 13.803 5.717 3.157 3.157 8.277 3.157 11.435 0 3.179-3.157 3.179-8.277 0-11.435-6.741-6.763-15.701-10.475-25.237-10.475h-12.843c-13.397 0-24.277 10.901-24.277 24.277 0 13.397 10.88 24.277 24.277 24.277h16.192c4.459 0 8.085 3.627 8.085 8.107 0 4.459-3.627 8.085-8.085 8.085h-12.843c-5.205 0-10.112-2.027-13.803-5.739-3.179-3.136-8.299-3.157-11.456 0.021-3.157 3.157-3.157 8.277 0 11.435 6.763 6.741 15.723 10.453 25.259 10.453h12.843c13.375 2e-3 24.276-10.878 24.276-24.254z"/>
<path d="m238.34 255.99h48.555c4.48 0 8.085-3.605 8.085-8.085 0-4.459-3.605-8.085-8.085-8.085h-40.469v-16.192h24.277c4.48 0 8.107-3.627 8.107-8.085 0-4.48-3.627-8.085-8.107-8.085h-24.277v-16.192h40.469c4.48 0 8.085-3.627 8.085-8.085 0-4.48-3.605-8.107-8.085-8.107h-48.555c-4.48 0-8.085 3.627-8.085 8.107v64.725c0 4.479 3.605 8.084 8.085 8.084z"/>
<path d="m343.53 255.99c17.856 0 32.384-14.507 32.384-32.363v-16.192c0-17.835-14.528-32.363-32.384-32.363-17.835 0-32.363 14.528-32.363 32.363v16.192c0 17.856 14.528 32.363 32.363 32.363zm-16.171-48.555c0-8.917 7.253-16.171 16.171-16.171 8.939 0 16.192 7.253 16.192 16.171v16.192c0 8.917-7.253 16.192-16.192 16.192-8.917 0-16.171-7.275-16.171-16.192v-16.192z"/>
</svg>