<?xml version="1.0" encoding="UTF-8"?><svg viewBox="0 0 1301 952" xmlns="http://www.w3.org/2000/svg"><g fill="#FFF" fill-rule="evenodd"><path d="m1043 63.5c0 1.3805-1.1195 2.5-2.5 2.5s-2.5-1.1195-2.5-2.5 1.1195-2.5 2.5-2.5 2.5 1.1195 2.5 2.5m-699-20c0 1.3805-1.1195 2.5-2.5 2.5s-2.5-1.1195-2.5-2.5 1.1195-2.5 2.5-2.5 2.5 1.1195 2.5 2.5m-145 529c0 1.3805-1.1195 2.5-2.5 2.5s-2.5-1.1195-2.5-2.5 1.1195-2.5 2.5-2.5 2.5 1.1195 2.5 2.5m42-181c0 1.381-1.119 2.5-2.5 2.5s-2.5-1.119-2.5-2.5 1.119-2.5 2.5-2.5 2.5 1.119 2.5 2.5m664-299c0 1.381-1.119 2.5-2.5 2.5s-2.5-1.119-2.5-2.5 1.119-2.5 2.5-2.5 2.5 1.119 2.5 2.5m-224-80c0 1.381-1.119 2.5-2.5 2.5s-2.5-1.119-2.5-2.5 1.119-2.5 2.5-2.5 2.5 1.119 2.5 2.5m-255 201c0 1.381-1.119 2.5-2.5 2.5s-2.5-1.119-2.5-2.5 1.119-2.5 2.5-2.5 2.5 1.119 2.5 2.5m49-150c0 1.381-1.119 2.5-2.5 2.5s-2.5-1.119-2.5-2.5 1.119-2.5 2.5-2.5 2.5 1.119 2.5 2.5m400-61c0 1.381-1.119 2.5-2.5 2.5s-2.5-1.119-2.5-2.5 1.119-2.5 2.5-2.5 2.5 1.119 2.5 2.5m-277.94 156.56c-0.30692-1.3466 0.53486-2.6863 1.8805-2.9932 1.3466-0.30692 2.6853 0.53486 2.9932 1.8805 0.30692 1.3456-0.53486 2.6853-1.8805 2.9932-1.3466 0.30692-2.6853-0.53486-2.9932-1.8805m421 90c-0.30744-1.3457 0.53439-2.686 1.8806-2.9929 1.3457-0.30744 2.686 0.5344 2.9929 1.8801 0.30693 1.3462-0.5344 2.686-1.8806 2.9934-1.3457 0.30694-2.686-0.5349-2.9929-1.8806m-703 211c-0.30695-1.3457 0.53441-2.6859 1.8807-2.9928 1.3458-0.30793 2.686 0.53438 2.993 1.8801 0.30695 1.3462-0.53441 2.6859-1.8807 2.9933-1.3458 0.30693-2.686-0.53538-2.993-1.8806m126 203c-0.30794-1.3458 0.53389-2.6856 1.8806-2.9926 1.3457-0.30796 2.6855 0.53493 2.9924 1.8808 0.30794 1.3448-0.53389 2.6856-1.8806 2.9926-1.3457 0.30696-2.6855-0.53393-2.9924-1.8808m-83 130c-0.30692-1.3457 0.53486-2.6859 1.881-2.9928 1.3452-0.30743 2.6853 0.53438 2.9927 1.8801 0.30692 1.3462-0.53486 2.6859-1.881 2.9933-1.3452 0.30743-2.6853-0.53488-2.9927-1.8806m320-12c-0.30692-1.3457 0.53486-2.686 1.881-2.9929 1.3452-0.30744 2.6853 0.5344 2.9927 1.8801 0.30692 1.3462-0.53486 2.686-1.8805 2.9934-1.3456 0.30694-2.6858-0.5349-2.9932-1.8806m171-70c-0.30692-1.3457 0.53486-2.6854 1.881-2.9928 1.3452-0.30743 2.6853 0.53488 2.9927 1.8801 0.30692 1.3462-0.53486 2.6859-1.881 2.9933-1.3452 0.30743-2.6853-0.53488-2.9927-1.8806m141 169c-0.30695-1.3457 0.53441-2.6859 1.8807-2.9928 1.3458-0.30793 2.686 0.53438 2.993 1.8801s-0.53441 2.6854-1.8807 2.9933c-1.3458 0.30693-2.686-0.53538-2.993-1.8806m183-392c-0.30744-1.3456 0.53439-2.6857 1.8806-2.9931 1.3457-0.30741 2.6855 0.53485 2.9929 1.8805 0.30694 1.3456-0.53489 2.6852-1.8806 2.9931-1.3457 0.30691-2.686-0.53535-2.9929-1.8805m123-184c-0.30744-1.3451 0.53439-2.6852 1.8806-2.9926 1.3457-0.30741 2.686 0.53485 2.9929 1.8805 0.30694 1.3456-0.53489 2.6852-1.8806 2.9931-1.3457 0.30691-2.686-0.53535-2.9929-1.881m-489.06 512.44c0 1.381-1.119 2.5-2.5 2.5s-2.5-1.119-2.5-2.5 1.119-2.5 2.5-2.5 2.5 1.119 2.5 2.5m-74 133c0 1.381-1.119 2.5-2.5 2.5s-2.5-1.119-2.5-2.5 1.119-2.5 2.5-2.5 2.5 1.119 2.5 2.5m244-257c0 1.381-1.119 2.5-2.5 2.5s-2.5-1.119-2.5-2.5 1.119-2.5 2.5-2.5 2.5 1.119 2.5 2.5m-744 16c0 1.381-1.119 2.5-2.5 2.5s-2.5-1.119-2.5-2.5 1.119-2.5 2.5-2.5 2.5 1.119 2.5 2.5m972-304c0 1.381-1.119 2.5-2.5 2.5s-2.5-1.119-2.5-2.5 1.119-2.5 2.5-2.5 2.5 1.119 2.5 2.5m-708 484c0 1.3805-1.1195 2.5-2.5 2.5s-2.5-1.1195-2.5-2.5 1.1195-2.5 2.5-2.5 2.5 1.1195 2.5 2.5m-492-30c0 1.3805-1.1195 2.5-2.5 2.5s-2.5-1.1195-2.5-2.5 1.1195-2.5 2.5-2.5 2.5 1.1195 2.5 2.5m60-640c0 1.3805-1.1195 2.5-2.5 2.5s-2.5-1.1195-2.5-2.5 1.1195-2.5 2.5-2.5 2.5 1.1195 2.5 2.5m1118 617c0 1.3805-1.1195 2.5-2.5 2.5s-2.5-1.1195-2.5-2.5 1.1195-2.5 2.5-2.5 2.5 1.1195 2.5 2.5m-87-208c0 1.3805-1.1195 2.5-2.5 2.5s-2.5-1.1195-2.5-2.5 1.1195-2.5 2.5-2.5 2.5 1.1195 2.5 2.5m44-387c0 1.3805-1.1195 2.5-2.5 2.5s-2.5-1.1195-2.5-2.5 1.1195-2.5 2.5-2.5 2.5 1.1195 2.5 2.5m-522-142c0 1.3805-1.1195 2.5-2.5 2.5s-2.5-1.1195-2.5-2.5 1.1195-2.5 2.5-2.5 2.5 1.1195 2.5 2.5"/></g></svg>