<?xml version="1.0" encoding="UTF-8"?><svg enable-background="new 0 0 32 32" version="1.1" viewBox="0 0 32 32" xml:space="preserve" xmlns="http://www.w3.org/2000/svg"><path d="m16 30.36c-2.605 0-5.093-0.712-7.194-2.058l0.389-0.605c1.985 1.271 4.338 1.942 6.806 1.942 2.404 0 4.822-0.69 6.808-1.944l0.385 0.609c-2.101 1.326-4.655 2.056-7.194 2.056zm12-4c-1.853 0-3.36-1.508-3.36-3.36s1.508-3.36 3.36-3.36 3.36 1.508 3.36 3.36-1.507 3.36-3.36 3.36zm0-6c-1.456 0-2.64 1.184-2.64 2.64s1.184 2.64 2.64 2.64 2.64-1.184 2.64-2.64-1.184-2.64-2.64-2.64zm-20 6h-7c-0.129 0-0.248-0.069-0.312-0.181s-0.064-0.25 1e-3 -0.361l3.5-6c0.129-0.221 0.493-0.221 0.622 0l3.5 6c0.065 0.111 0.065 0.249 1e-3 0.361s-0.183 0.181-0.312 0.181zm-6.373-0.72h5.746l-2.873-4.925-2.873 4.925zm19.733-2.64h-0.72v-1.683c0-2.16-1.466-4.016-3.565-4.513-0.15-0.035-0.261-0.163-0.275-0.316-0.014-0.154 0.071-0.3 0.212-0.363 0.899-0.4 1.479-1.293 1.479-2.275 0-1.373-1.117-2.49-2.49-2.49s-2.49 1.117-2.49 2.49c0 0.982 0.581 1.875 1.48 2.275 0.141 0.063 0.226 0.209 0.212 0.362-0.014 0.154-0.125 0.282-0.275 0.317-2.1 0.498-3.566 2.353-3.566 4.513v1.683h-0.72v-1.683c0-2.221 1.342-4.162 3.347-4.968-0.745-0.601-1.197-1.515-1.197-2.499 0-1.77 1.44-3.21 3.21-3.21 1.771 0 3.211 1.44 3.211 3.21 0 0.984-0.452 1.898-1.197 2.499 2.005 0.806 3.347 2.748 3.347 4.968v1.683h-3e-3zm7.961-4.973-0.719-0.055c0.025-0.321 0.037-0.646 0.037-0.973 0-4.708-2.607-8.993-6.806-11.181l0.332-0.639c4.439 2.314 7.195 6.843 7.195 11.821 0 0.347-0.013 0.688-0.039 1.027zm-26.642 0c-0.026-0.339-0.039-0.68-0.039-1.027 0-5 2.756-9.542 7.193-11.855l0.333 0.639c-4.198 2.188-6.806 6.486-6.806 11.216 0 0.327 0.013 0.651 0.037 0.973l-0.718 0.054zm16.321-10.667h-6c-0.199 0-0.36-0.161-0.36-0.36v-6c0-0.199 0.161-0.36 0.36-0.36h6c0.199 0 0.36 0.161 0.36 0.36v6c0 0.199-0.161 0.36-0.36 0.36zm-5.64-0.72h5.28v-5.28h-5.28v5.28z" fill="#ff4d5a"/><rect width="32" height="32" fill="none"/></svg>