<?xml version="1.0" encoding="iso-8859-1"?>
<!-- Generator: Adobe Illustrator 19.0.0, SVG Export Plug-In . SVG Version: 6.00 Build 0)  -->
<svg version="1.1" id="Layer_1" xmlns="http://www.w3.org/2000/svg" xmlns:xlink="http://www.w3.org/1999/xlink" x="0px" y="0px"
	 viewBox="0 0 512 512" style="enable-background:new 0 0 512 512;" xml:space="preserve">
<path style="fill:#ff4d5a;" d="M319.052,401.657c-5.94,0-11.248-3.713-13.287-9.292l-38.937-106.66l-36.615,106.411
	c-1.965,5.708-7.338,9.541-13.374,9.541h-21.3c-5.947,0-11.261-3.721-13.292-9.312L103.111,174.64
	c-1.576-4.335-0.938-9.167,1.709-12.946c2.648-3.779,6.971-6.029,11.584-6.029h43.746c6.075,0,11.469,3.878,13.407,9.636
	l49.189,146.281l25.559-76.65l-22.006-60.273c-1.583-4.336-0.95-9.174,1.696-12.957c2.646-3.783,6.973-6.038,11.589-6.038h44.057
	c6.075,0,11.471,3.878,13.407,9.636l48.206,143.411c0,0,7.515-25.089,7.53-25.145l1.249-3.99
	c6.268-20.013,10.796-34.471,10.796-46.206c0-17.424-5.974-29.444-12.13-40.246l-1.926-3.119
	c-8.052-12.994-15.671-25.285-15.671-40.584c0-18.419,14.05-38.598,36.747-39.077c0.099-0.001,0.201-0.003,0.3-0.003
	c18.769,0.001,42.021,9.742,46.216,56.135c0.461,4.802,0.677,9.017,0.677,13.192c0,20.095-4.165,39.915-13.108,62.352
	L354.52,392.097c-1.959,5.718-7.336,9.56-13.38,9.56H319.052z"/>
<g>
	<path style="fill:#ff4d5a;" d="M372.146,124.485c18.958,0.001,29.498,14.154,32.132,43.265c0.424,4.427,0.619,8.208,0.619,11.919
		c0,18.309-3.874,36.532-12.195,57.347l-0.074,0.199l-51.487,150.3h-22.089l-52.619-144.132L216.84,387.516h-21.3l-79.135-217.708
		h43.746l62.652,186.314l40.482-121.405l-23.701-64.911h44.057l62.39,185.61l20.249-67.628l1.249-3.99
		c6.642-21.21,11.441-36.534,11.441-50.429c0-20.998-7.283-35.51-14.111-47.467l-2.055-3.329
		c-7.278-11.742-13.562-21.883-13.562-33.153C349.245,137.662,358,124.784,372.146,124.485 M372.149,96.198
		c-0.199,0-0.399,0.001-0.598,0.006c-14.793,0.313-28.235,6.809-37.85,18.293c-8.217,9.816-12.743,22.218-12.743,34.923
		c0,19.327,9.459,34.59,17.805,48.056l1.769,2.867c5.577,9.8,10.152,19.121,10.152,33.027c0,7.199-2.409,16.674-6.109,28.934
		l-34.122-101.509c-3.871-11.516-14.663-19.274-26.814-19.274h-44.057c-9.234,0-17.887,4.508-23.18,12.074
		c-5.293,7.567-6.558,17.241-3.392,25.915l20.313,55.631l-10.636,31.897l-35.727-106.246c-3.873-11.514-14.664-19.271-26.812-19.271
		h-43.746c-9.227,0-17.875,4.501-23.169,12.057c-5.294,7.557-6.57,17.221-3.417,25.894l79.135,217.706
		c4.065,11.181,14.69,18.623,26.586,18.623h21.3c12.076,0,22.819-7.664,26.748-19.084l23.634-68.689l25.258,69.186
		c4.075,11.161,14.69,18.586,26.572,18.586h22.09c12.09,0,22.843-7.683,26.761-19.121l51.3-149.752
		c9.537-24.024,13.982-45.412,13.982-67.262c0-4.619-0.236-9.244-0.743-14.554c-1.817-19.981-6.857-35.287-15.404-46.787
		C406.433,104.058,390.491,96.199,372.149,96.198L372.149,96.198z"/>
	<path style="fill:#ff4d5a;" d="M60.761,139.883c-7.81,0-14.144-6.334-14.144-14.144V60.761c0-7.81,6.334-14.144,14.144-14.144
		h64.979c7.81,0,14.144,6.334,14.144,14.144s-6.334,14.144-14.144,14.144H74.905v50.835
		C74.905,133.551,68.571,139.883,60.761,139.883z"/>
	<path style="fill:#ff4d5a;" d="M451.239,465.383H386.26c-7.81,0-14.144-6.334-14.144-14.144s6.334-14.144,14.144-14.144h50.835
		V386.26c0-7.81,6.334-14.144,14.144-14.144c7.81,0,14.144,6.334,14.144,14.144v64.979
		C465.383,459.05,459.05,465.383,451.239,465.383z"/>
	<path style="fill:#ff4d5a;" d="M497.856,512H14.144C6.334,512,0,505.667,0,497.856V14.144C0,6.334,6.334,0,14.144,0h483.713
		C505.667,0,512,6.334,512,14.144v483.713C512,505.667,505.667,512,497.856,512z M28.287,483.713h455.425V28.287H28.287V483.713z"/>
</g>
<g>
</g>
<g>
</g>
<g>
</g>
<g>
</g>
<g>
</g>
<g>
</g>
<g>
</g>
<g>
</g>
<g>
</g>
<g>
</g>
<g>
</g>
<g>
</g>
<g>
</g>
<g>
</g>
<g>
</g>
</svg>
